<svg xmlns="http://www.w3.org/2000/svg" viewBox="37.2 45.8 258.4 189"><g transform="translate(0,340) scale(1,-1)"><path d="M203.6 155.2L207.3 153L193.4 129.4L189.7 131.5ZM207.2 153.1L207.6 152.8L193.7 129.2L193.3 129.4ZM207.4 152.9L207.8 152.7L194 129.1L193.6 129.3ZM207.7 152.8L208.1 152.5L194.2 128.9L193.8 129.1ZM208 152.6L208.4 152.4L194.5 128.7L194.1 129ZM208.2 152.5L208.6 152.2L194.8 128.6L194.4 128.8ZM208.5 152.3L208.9 152.1L195 128.4L194.6 128.7ZM208.8 152.1L209.2 151.9L195.3 128.3L194.9 128.5ZM209 152L209.4 151.8L195.6 128.1L195.2 128.4ZM209.3 151.8L209.7 151.6L195.8 128L195.4 128.2ZM209.6 151.7L209.9 151.5L196.1 127.8L195.7 128ZM209.8 151.5L210.2 151.3L196.4 127.7L196 127.9ZM210.1 151.4L210.5 151.1L196.6 127.5L196.2 127.7ZM210.3 151.2L210.7 151L196.9 127.3L196.5 127.6ZM210.6 151.1L211 150.8L197.1 127.2L196.7 127.4ZM222 290.1L229.7 279.9L131.4 205.4L123.7 215.6ZM229.6 280L229.9 279.6L131.6 205.2L131.3 205.6ZM229.8 279.7L230.2 279.3L131.8 204.9L131.5 205.3ZM230.1 279.5L230.4 279.1L132 204.6L131.7 205ZM230.3 279.2L230.6 278.8L132.2 204.4L131.9 204.8ZM230.5 278.9L230.8 278.5L132.4 204.1L132.1 204.5ZM230.7 278.7L231 278.3L132.6 203.8L132.3 204.2ZM230.9 278.4L231.2 278L132.8 203.6L132.5 204ZM231.1 278.1L231.4 277.7L133 203.3L132.7 203.7ZM231.3 277.9L231.6 277.5L133.2 203L132.9 203.4ZM231.5 277.6L231.8 277.2L133.4 202.8L133.1 203.2ZM231.7 277.3L232 276.9L133.6 202.5L133.3 202.9ZM231.9 277.1L232.2 276.7L133.8 202.2L133.5 202.6ZM232.1 276.8L232.4 276.4L134 202L133.7 202.4ZM232.3 276.5L232.6 276.1L134.2 201.7L133.9 202.1ZM161.6 194.8L165.2 190L134.6 167.3L131.1 172ZM165.1 190.1L165.4 189.7L134.8 167L134.5 167.4ZM165.3 189.9L165.6 189.5L135 166.8L134.7 167.2ZM165.5 189.6L165.8 189.2L135.2 166.5L134.9 166.9ZM165.7 189.3L166 188.9L135.4 166.2L135.1 166.6ZM165.9 189.1L166.2 188.7L135.6 165.9L135.3 166.4ZM166.1 188.8L166.4 188.4L135.8 165.7L135.5 166.1ZM166.3 188.5L166.6 188.1L136 165.4L135.7 165.8ZM166.5 188.3L166.8 187.9L136.2 165.1L135.9 165.5ZM166.7 188L167 187.6L136.4 164.9L136.1 165.3ZM166.9 187.7L167.2 187.3L136.6 164.6L136.3 165ZM167.1 187.5L167.4 187.1L136.8 164.3L136.5 164.7ZM167.3 187.2L167.6 186.8L137 164.1L136.7 164.5ZM167.5 186.9L167.8 186.5L137.2 163.8L136.9 164.2ZM167.7 186.7L168 186.2L137.4 163.5L137.1 163.9ZM54.1 224.2L56.2 223.8L43.3 147.8L41.2 148.2ZM56.1 223.8L56.3 223.8L43.5 147.8L43.2 147.8ZM56.3 223.8L56.5 223.7L43.6 147.8L43.4 147.8ZM56.4 223.8L56.6 223.7L43.7 147.7L43.5 147.8ZM56.6 223.7L56.8 223.7L43.9 147.7L43.7 147.7ZM56.7 223.7L56.9 223.7L44 147.7L43.8 147.7ZM56.8 223.7L57 223.6L44.2 147.7L43.9 147.7ZM57 223.7L57.2 223.6L44.3 147.6L44.1 147.7ZM57.1 223.6L57.3 223.6L44.4 147.6L44.2 147.6ZM57.3 223.6L57.5 223.6L44.6 147.6L44.4 147.6ZM57.4 223.6L57.6 223.6L44.7 147.6L44.5 147.6ZM57.5 223.6L57.8 223.5L44.9 147.5L44.7 147.6ZM57.7 223.5L57.9 223.5L45 147.5L44.8 147.6ZM57.8 223.5L58 223.5L45.2 147.5L44.9 147.5ZM58 223.5L58.2 223.5L45.3 147.5L45.1 147.5Z" fill="#c47054"/><path d="M210.9 150.9L211.3 150.7L197.4 127L197 127.3ZM211.1 150.8L211.5 150.5L197.7 126.9L197.3 127.1ZM211.4 150.6L211.8 150.4L197.9 126.7L197.5 127ZM211.7 150.4L212.1 150.2L198.2 126.6L197.8 126.8ZM211.9 150.3L212.3 150.1L198.5 126.4L198.1 126.7ZM212.2 150.1L212.6 149.9L198.7 126.3L198.3 126.5ZM212.5 150L212.9 149.7L199 126.1L198.6 126.3ZM212.7 149.8L213.1 149.6L199.3 126L198.9 126.2ZM213 149.7L213.4 149.4L199.5 125.8L199.1 126ZM213.2 149.5L213.6 149.3L199.8 125.6L199.4 125.9ZM213.5 149.4L213.9 149.1L200 125.5L199.7 125.7ZM213.8 149.2L214.2 149L200.3 125.3L199.9 125.6ZM214 149.1L214.4 148.8L200.6 125.2L200.2 125.4ZM214.3 148.9L214.7 148.7L200.8 125L200.4 125.3ZM214.6 148.7L215 148.5L201.1 124.9L200.7 125.1ZM214.8 148.6L215.2 148.4L201.4 124.7L201 124.9ZM215.1 148.4L215.5 148.2L201.6 124.6L201.2 124.8ZM215.4 148.3L215.8 148L201.9 124.4L201.5 124.6ZM215.6 148.1L216 147.9L202.2 124.3L201.8 124.5ZM215.9 148L216.3 147.7L202.4 124.1L202 124.3ZM216.4 147.7L216.8 147.4L203 123.8L202.6 124ZM214.6 144.2L214.9 144.1L198.2 115.6L197.9 115.7ZM277.4 147L277.4 147L272.4 138.6L272.5 138.5ZM281.6 154.1L282 153.8L265.3 125.3L264.9 125.6ZM281.9 153.9L282.3 153.7L265.5 125.2L265.1 125.4ZM282.1 153.8L282.5 153.5L265.8 125L265.4 125.2ZM282.4 153.6L282.8 153.4L266.1 124.9L265.7 125.1ZM282.7 153.4L283 153.2L266.3 124.7L265.9 124.9ZM282.9 153.3L283.3 153.1L266.6 124.6L266.2 124.8ZM283.2 153.1L283.6 152.9L266.9 124.4L266.5 124.6ZM283.4 153L283.8 152.7L267.1 124.2L266.7 124.5ZM283.7 152.8L284.1 152.6L267.4 124.1L267 124.3ZM284 152.7L284.4 152.4L267.7 123.9L267.3 124.2ZM284.2 152.5L284.6 152.3L267.9 123.8L267.5 124ZM284.5 152.4L284.9 152.1L268.2 123.6L267.8 123.9ZM232.5 276.3L232.8 275.9L134.4 201.4L134.1 201.8ZM232.7 276L233 275.6L134.6 201.2L134.3 201.6ZM232.9 275.7L233.2 275.3L134.9 200.9L134.5 201.3ZM233.1 275.5L233.4 275.1L135.1 200.6L134.8 201ZM233.3 275.2L233.6 274.8L135.3 200.4L135 200.8ZM233.5 274.9L233.8 274.5L135.5 200.1L135.2 200.5ZM233.7 274.7L234 274.3L135.7 199.8L135.4 200.2ZM233.9 274.4L234.2 274L135.9 199.6L135.6 200ZM234.1 274.1L234.4 273.7L136.1 199.3L135.8 199.7ZM234.3 273.9L234.6 273.5L136.3 199L136 199.4ZM234.5 273.6L234.8 273.2L136.5 198.8L136.2 199.2ZM234.7 273.3L235 272.9L136.7 198.5L136.4 198.9ZM234.9 273.1L235.2 272.7L136.9 198.2L136.6 198.6ZM235.1 272.8L235.4 272.4L137.1 198L136.8 198.4ZM235.3 272.6L235.6 272.2L137.3 197.7L137 198.1ZM235.5 272.3L235.8 271.9L137.5 197.4L137.2 197.8ZM235.7 272L236 271.6L137.7 197.2L137.4 197.6ZM235.9 271.8L236.2 271.4L137.9 196.9L137.6 197.3ZM236.1 271.5L236.4 271.1L138.1 196.6L137.8 197ZM236.3 271.2L236.6 270.8L138.3 196.4L138 196.8ZM236.7 270.7L237 270.3L138.7 195.9L138.4 196.3ZM271.5 224.7L271.8 224.3L173.5 149.9L173.2 150.3ZM271.7 224.4L272 224L173.7 149.6L173.4 150ZM271.9 224.2L272.2 223.8L173.9 149.3L173.6 149.7ZM272.1 223.9L272.4 223.5L174.1 149.1L173.8 149.5ZM272.3 223.6L272.6 223.2L174.3 148.8L174 149.2ZM272.5 223.4L272.8 223L174.5 148.5L174.2 148.9ZM272.7 223.1L273 222.7L174.7 148.3L174.4 148.7ZM272.9 222.8L273.2 222.4L174.9 148L174.6 148.4ZM273.1 222.6L273.4 222.2L175.1 147.7L174.8 148.1ZM273.3 222.3L273.6 221.9L175.3 147.5L175 147.9ZM273.5 222L273.8 221.6L175.5 147.2L175.2 147.6ZM273.7 221.8L274 221.4L175.7 146.9L175.4 147.3ZM167.9 186.4L168.2 186L137.6 163.3L137.3 163.7ZM168.1 186.1L168.4 185.7L137.8 163L137.5 163.4ZM168.3 185.8L168.6 185.4L138 162.7L137.7 163.1ZM168.5 185.6L168.8 185.2L138.2 162.5L137.9 162.9ZM168.7 185.3L169 184.9L138.4 162.2L138.1 162.6ZM168.9 185L169.2 184.6L138.6 161.9L138.3 162.3ZM169.1 184.8L169.4 184.4L138.8 161.6L138.5 162.1ZM169.3 184.5L169.6 184.1L139 161.4L138.7 161.8ZM169.5 184.2L169.8 183.8L139.2 161.1L138.9 161.5ZM169.7 184L170 183.6L139.4 160.8L139.1 161.2ZM169.9 183.7L170.2 183.3L139.6 160.6L139.3 161ZM170.1 183.4L170.4 183L139.8 160.3L139.5 160.7ZM170.3 183.2L170.6 182.8L140 160L139.7 160.4ZM170.5 182.9L170.8 182.5L140.2 159.8L139.9 160.2ZM170.7 182.6L171 182.2L140.4 159.5L140.1 159.9ZM170.9 182.4L171.2 181.9L140.6 159.2L140.3 159.6ZM171.1 182.1L171.4 181.7L140.8 159L140.5 159.4ZM171.3 181.8L171.6 181.4L141 158.7L140.7 159.1ZM171.5 181.5L171.8 181.1L141.2 158.4L140.9 158.8ZM171.7 181.3L172 180.9L141.4 158.2L141.1 158.6ZM172.1 180.7L172.4 180.3L141.8 157.6L141.5 158ZM251.4 167.5L251.7 167.1L219.1 142.9L218.8 143.3ZM251.6 167.2L251.9 166.8L219.3 142.6L219 143ZM251.8 167L252.1 166.6L219.5 142.3L219.2 142.7ZM252 166.7L251.9 166.8L219.3 142.6L219.4 142.5ZM270.9 182.1L271.2 181.7L240.9 159.1L240.6 159.5ZM271.1 181.8L271.4 181.4L241.1 158.8L240.8 159.2ZM271.3 181.5L271.6 181.1L241.3 158.5L241 158.9ZM271.5 181.3L271.8 180.9L241.5 158.3L241.2 158.7ZM271.7 181L272 180.6L241.7 158L241.4 158.4ZM271.9 180.7L272.2 180.3L241.9 157.7L241.6 158.1ZM272.1 180.5L272.4 180.1L242.1 157.5L241.8 157.9ZM272.3 180.2L272.6 179.8L242.3 157.2L242 157.6ZM272.5 179.9L272.8 179.5L242.5 156.9L242.2 157.3ZM272.7 179.6L273 179.2L242.7 156.7L242.4 157.1ZM272.9 179.4L273.2 179L242.9 156.4L242.6 156.8ZM273.1 179.1L273.4 178.7L243.1 156.1L242.8 156.5ZM58.1 223.5L58.3 223.4L45.4 147.4L45.2 147.5ZM58.3 223.4L58.5 223.4L45.6 147.4L45.4 147.5ZM58.4 223.4L58.6 223.4L45.7 147.4L45.5 147.4ZM58.5 223.4L58.7 223.4L45.9 147.4L45.6 147.4ZM58.7 223.4L58.9 223.3L46 147.3L45.8 147.4ZM58.8 223.3L59 223.3L46.1 147.3L45.9 147.4ZM59 223.3L59.2 223.3L46.3 147.3L46.1 147.3ZM59.1 223.3L59.3 223.3L46.4 147.3L46.2 147.3ZM59.2 223.3L59.5 223.2L46.6 147.3L46.4 147.3ZM59.4 223.3L59.6 223.2L46.7 147.2L46.5 147.3ZM59.5 223.2L59.7 223.2L46.8 147.2L46.6 147.2ZM59.7 223.2L59.9 223.2L47 147.2L46.8 147.2ZM59.8 223.2L60 223.1L47.1 147.2L46.9 147.2ZM60 223.2L60.2 223.1L47.3 147.1L47.1 147.2ZM60.1 223.1L60.3 223.1L47.4 147.1L47.2 147.1ZM60.2 223.1L60.4 223.1L47.6 147.1L47.3 147.1ZM60.4 223.1L60.6 223L47.7 147.1L47.5 147.1ZM60.5 223.1L60.7 223L47.8 147L47.6 147.1ZM60.7 223L60.9 223L48 147L47.8 147ZM60.8 223L61 223L48.1 147L47.9 147ZM61.1 223L61.3 222.9L48.4 146.9L48.2 147ZM85.6 218.8L85.8 218.8L72.9 142.8L72.7 142.8ZM85.7 218.8L85.9 218.7L73 142.8L72.8 142.8ZM85.9 218.8L86.1 218.7L73.2 142.7L73 142.8ZM86 218.7L86.2 218.7L73.3 142.7L73.1 142.7ZM86.1 218.7L86.4 218.7L73.5 142.7L73.3 142.7ZM86.3 218.7L86.5 218.7L73.6 142.7L73.4 142.7ZM86.4 218.7L86.6 218.6L73.7 142.6L73.5 142.7ZM86.6 218.6L86.8 218.6L73.9 142.6L73.7 142.7ZM86.7 218.6L86.9 218.6L74 142.6L73.8 142.6ZM86.8 218.6L87.1 218.6L74.2 142.6L74 142.6ZM87 218.6L87.2 218.5L74.3 142.5L74.1 142.6ZM87.1 218.5L87.3 218.5L74.5 142.5L74.2 142.6ZM96.3 226.1L96.4 226L58.7 194L58.6 194.1ZM96.3 226.1L96.5 225.9L58.8 193.8L58.6 194.1ZM96.4 226L96.6 225.7L58.9 193.7L58.7 193.9ZM96.6 225.8L96.7 225.6L59.1 193.5L58.9 193.8ZM96.7 225.7L96.9 225.4L59.2 193.4L59 193.6ZM96.8 225.5L97 225.3L59.3 193.2L59.1 193.5ZM96.9 225.4L97.1 225.1L59.4 193.1L59.3 193.3ZM97.1 225.2L97.3 225L59.6 192.9L59.4 193.2ZM97.2 225.1L97.4 224.8L59.7 192.8L59.5 193ZM97.3 224.9L97.5 224.7L59.8 192.6L59.6 192.9ZM97.4 224.8L97.6 224.6L59.9 192.5L59.8 192.7ZM97.6 224.6L97.8 224.4L60.1 192.3L59.9 192.6ZM97.8 224.3L98 224.1L60.3 192L60.1 192.3ZM119.8 198.5L120 198.3L82.3 166.2L82.1 166.4ZM119.9 198.3L120.1 198.1L82.4 166.1L82.2 166.3ZM120.1 198.2L120.2 198L82.6 165.9L82.4 166.1ZM120.2 198L120.4 197.8L82.7 165.8L82.5 166ZM120.3 197.9L120.5 197.7L82.8 165.6L82.6 165.8ZM120.4 197.7L120.6 197.5L82.9 165.5L82.8 165.7ZM120.6 197.6L120.8 197.4L83.1 165.3L82.9 165.5ZM120.7 197.4L120.9 197.2L83.2 165.2L83 165.4ZM120.8 197.3L121 197.1L83.3 165L83.1 165.2ZM120.9 197.1L121.1 196.9L83.4 164.9L83.3 165.1ZM121.1 197L121.3 196.8L83.6 164.7L83.4 164.9ZM121.2 196.8L121.4 196.6L83.7 164.6L83.5 164.8ZM117.7 189.6L117.8 189.4L59.9 167.8L59.9 167.9ZM117.8 189.5L117.9 189.3L60 167.7L59.9 167.9ZM117.8 189.4L117.9 189.1L60 167.5L59.9 167.7ZM117.9 189.2L118 189L60.1 167.4L60 167.6ZM117.9 189.1L118 188.8L60.1 167.2L60.1 167.4ZM118 188.9L118.1 188.7L60.2 167.1L60.1 167.3ZM118 188.8L118.1 188.5L60.2 166.9L60.2 167.1ZM118.1 188.6L118.2 188.4L60.3 166.8L60.2 167ZM118.2 188.5L118.2 188.3L60.4 166.6L60.3 166.9ZM118.2 188.3L118.3 188.1L60.4 166.5L60.3 166.7ZM118.3 188.2L118.4 188L60.5 166.3L60.4 166.6ZM118.3 188L118.4 187.8L60.5 166.2L60.4 166.4ZM118.4 187.7L118.5 187.5L60.6 165.9L60.5 166.1ZM128 162.2L128.1 162L70.2 140.4L70.1 140.6ZM128 162.1L128.1 161.8L70.2 140.2L70.1 140.4ZM128.1 161.9L128.2 161.7L70.3 140.1L70.2 140.3ZM128.1 161.8L128.2 161.5L70.3 139.9L70.3 140.1ZM128.2 161.6L128.3 161.4L70.4 139.8L70.3 140ZM128.2 161.5L128.3 161.2L70.4 139.6L70.4 139.8ZM128.3 161.3L128.4 161.1L70.5 139.5L70.4 139.7ZM128.4 161.2L128.4 161L70.6 139.3L70.5 139.5ZM128.4 161L128.5 160.8L70.6 139.2L70.5 139.4ZM128.5 160.9L128.5 160.7L70.7 139L70.6 139.3ZM128.5 160.7L128.6 160.5L70.7 138.9L70.6 139.1ZM128.6 160.6L128.7 160.4L70.8 138.7L70.7 139Z" fill="#c48c54"/><path d="M216.2 147.8L216.6 147.6L202.7 123.9L202.3 124.2ZM216.7 147.5L217.1 147.3L203.2 123.6L202.8 123.9ZM216.9 147.3L217.3 147.1L203.5 123.5L203.1 123.7ZM217.2 147.2L217.6 147L203.7 123.3L203.4 123.6ZM217.5 147L217.9 146.8L204 123.2L203.6 123.4ZM217.7 146.9L217.5 147L203.7 123.4L203.9 123.2ZM214.7 144.2L215.1 143.9L198.4 115.4L198 115.7ZM215 144L215.4 143.8L198.7 115.3L198.3 115.5ZM215.3 143.9L215.7 143.6L198.9 115.1L198.5 115.4ZM215.5 143.7L215.9 143.5L199.2 115L198.8 115.2ZM215.8 143.6L216.2 143.3L199.5 114.8L199.1 115.1ZM216.1 143.4L216.5 143.2L199.7 114.7L199.3 114.9ZM216.3 143.2L216.7 143L200 114.5L199.6 114.7ZM216.6 143.1L217 142.9L200.3 114.4L199.9 114.6ZM216.8 142.9L217.2 142.7L200.5 114.2L200.1 114.4ZM217.1 142.8L217.5 142.6L200.8 114L200.4 114.3ZM217.4 142.6L217.8 142.4L201.1 113.9L200.7 114.1ZM217.6 142.5L218 142.2L201.3 113.7L200.9 114ZM217.9 142.3L218.3 142.1L201.6 113.6L201.2 113.8ZM218.2 142.2L218.6 141.9L201.9 113.4L201.5 113.7ZM218.4 142L218.8 141.8L202.1 113.3L201.7 113.5ZM218.7 141.9L219.1 141.6L202.4 113.1L202 113.3ZM219 141.7L219.4 141.5L202.6 113L202.2 113.2ZM219.2 141.5L219.6 141.3L202.9 112.8L202.5 113ZM219.5 141.4L219.9 141.2L203.2 112.7L202.8 112.9ZM219.8 141.2L220.1 141L203.4 112.5L203 112.7ZM220 141.1L220.4 140.8L203.7 112.3L203.3 112.6ZM220.3 140.9L220.7 140.7L204 112.2L203.6 112.4ZM220.5 140.8L220.9 140.5L204.2 112L203.8 112.3ZM220.8 140.6L221.2 140.4L204.5 111.9L204.1 112.1ZM221.1 140.5L221.5 140.2L204.8 111.7L204.4 112ZM221.3 140.3L221.7 140.1L205 111.6L204.6 111.8ZM221.6 140.1L222 139.9L205.3 111.4L204.9 111.6ZM221.9 140L222.3 139.8L205.5 111.3L205.2 111.5ZM222.1 139.8L222.5 139.6L205.8 111.1L205.4 111.3ZM222.4 139.7L222.8 139.5L206.1 110.9L205.7 111.2ZM222.7 139.5L223.1 139.3L206.3 110.8L205.9 111ZM222.9 139.4L223.3 139.1L206.6 110.6L206.2 110.9ZM223.2 139.2L223.6 139L206.9 110.5L206.5 110.7ZM223.5 139.1L223.8 138.8L207.1 110.3L206.7 110.6ZM223.7 138.9L224.1 138.7L207.4 110.2L207 110.4ZM224 138.8L224.4 138.5L207.7 110L207.3 110.2ZM224.2 138.6L224.6 138.4L207.9 109.9L207.5 110.1ZM224.5 138.4L224.9 138.2L208.2 109.7L207.8 109.9ZM224.8 138.3L225.2 138.1L208.5 109.6L208.1 109.8ZM225 138.1L225.4 137.9L208.7 109.4L208.3 109.6ZM225.3 138L225.7 137.7L209 109.2L208.6 109.5ZM225.6 137.8L226 137.6L209.2 109.1L208.9 109.3ZM225.8 137.7L225.8 137.7L209 109.2L209.1 109.2ZM246 164.8L246.1 164.7L227.6 133.1L227.4 133.2ZM246 164.7L246.4 164.5L227.9 133L227.5 133.2ZM246.2 164.6L246.6 164.4L228.1 132.8L227.7 133ZM246.5 164.4L246.9 164.2L228.4 132.6L228 132.9ZM246.8 164.3L247.2 164L228.7 132.5L228.3 132.7ZM247 164.1L247.4 163.9L228.9 132.3L228.5 132.6ZM247.3 164L247.7 163.7L229.2 132.2L228.8 132.4ZM247.5 163.8L247.9 163.6L229.4 132L229 132.3ZM247.8 163.7L248.2 163.4L229.7 131.9L229.3 132.1ZM248.1 163.5L248.5 163.3L230 131.7L229.6 131.9ZM271.4 150.5L271.7 150.3L266.8 141.9L266.4 142.1ZM271.6 150.4L272 150.1L267.1 141.7L266.7 142ZM271.9 150.2L272.3 150L267.3 141.6L266.9 141.8ZM272.1 150.1L272.5 149.8L267.6 141.4L267.2 141.6ZM272.4 149.9L272.8 149.7L267.9 141.3L267.5 141.5ZM272.7 149.7L273.1 149.5L268.1 141.1L267.7 141.3ZM272.9 149.6L273.3 149.4L268.4 140.9L268 141.2ZM273.2 149.4L273.6 149.2L268.7 140.8L268.3 141ZM273.5 149.3L273.9 149L268.9 140.6L268.5 140.9ZM273.7 149.1L274.1 148.9L269.2 140.5L268.8 140.7ZM274 149L274.4 148.7L269.5 140.3L269.1 140.6ZM274.3 148.8L274.7 148.6L269.7 140.2L269.3 140.4ZM274.5 148.7L274.9 148.4L270 140L269.6 140.2ZM274.8 148.5L275.2 148.3L270.2 139.9L269.9 140.1ZM275 148.4L275.4 148.1L270.5 139.7L270.1 139.9ZM275.3 148.2L275.7 148L270.8 139.6L270.4 139.8ZM275.6 148L276 147.8L271 139.4L270.6 139.6ZM275.8 147.9L276.2 147.7L271.3 139.2L270.9 139.5ZM276.1 147.7L276.5 147.5L271.6 139.1L271.2 139.3ZM276.4 147.6L276.8 147.3L271.8 138.9L271.4 139.2ZM276.6 147.4L277 147.2L272.1 138.8L271.7 139ZM276.9 147.3L277.3 147L272.4 138.6L272 138.9ZM277.2 147.1L277.6 146.9L272.6 138.5L272.2 138.7ZM280.4 154.7L280.7 154.6L264 126.1L263.7 126.2ZM280.5 154.7L280.9 154.5L264.2 125.9L263.8 126.2ZM280.8 154.5L281.2 154.3L264.5 125.8L264.1 126ZM281.1 154.4L281.5 154.1L264.7 125.6L264.4 125.9ZM281.3 154.2L281.7 154L265 125.5L264.6 125.7ZM284.8 152.2L285.2 152L268.4 123.5L268.1 123.7ZM285 152.1L285.4 151.8L268.7 123.3L268.3 123.5ZM285.3 151.9L285.7 151.7L269 123.2L268.6 123.4ZM285.6 151.7L286 151.5L269.2 123L268.8 123.2ZM285.8 151.6L286.2 151.4L269.5 122.8L269.1 123.1ZM286.1 151.4L286.5 151.2L269.8 122.7L269.4 122.9ZM286.4 151.3L286.7 151L270 122.5L269.6 122.8ZM286.6 151.1L287 150.9L270.3 122.4L269.9 122.6ZM286.9 151L287.3 150.7L270.6 122.2L270.2 122.5ZM287.1 150.8L287.5 150.6L270.8 122.1L270.4 122.3ZM236.5 271L236.8 270.6L138.5 196.1L138.2 196.5ZM236.9 270.4L237.2 270L138.9 195.6L138.6 196ZM237.1 270.2L237.4 269.8L139.1 195.3L138.8 195.7ZM237.3 269.9L237.6 269.5L139.3 195.1L139 195.5ZM237.5 269.6L237.8 269.2L139.5 194.8L139.2 195.2ZM237.7 269.4L238 269L139.7 194.5L139.4 194.9ZM237.9 269.1L238.2 268.7L139.9 194.3L139.6 194.7ZM238.1 268.8L238.4 268.4L140.1 194L139.8 194.4ZM238.3 268.6L238.6 268.2L140.3 193.7L140 194.1ZM238.5 268.3L238.8 267.9L140.5 193.5L140.2 193.9ZM238.7 268L239 267.6L140.7 193.2L140.4 193.6ZM238.9 267.8L239.2 267.4L140.9 192.9L140.6 193.3ZM239.1 267.5L239.4 267.1L141.1 192.7L140.8 193.1ZM239.3 267.2L239.6 266.8L141.3 192.4L141 192.8ZM239.5 267L239.8 266.6L141.5 192.1L141.2 192.5ZM239.7 266.7L240 266.3L141.7 191.9L141.4 192.3ZM239.9 266.4L240.2 266L141.9 191.6L141.6 192ZM240.1 266.2L240.4 265.8L142.1 191.3L141.8 191.7ZM240.3 265.9L240.6 265.5L142.3 191.1L142 191.5ZM240.5 265.6L240.8 265.2L142.5 190.8L142.2 191.2ZM240.7 265.4L241 265L142.7 190.5L142.4 190.9ZM240.9 265.1L241.2 264.7L142.9 190.3L142.6 190.7ZM241.1 264.8L241.4 264.4L143.1 190L142.8 190.4ZM241.3 264.6L241.6 264.2L143.3 189.7L143 190.1ZM241.5 264.3L241.8 263.9L143.5 189.5L143.2 189.9ZM241.7 264L242 263.6L143.7 189.2L143.4 189.6ZM241.9 263.8L242.2 263.4L143.9 188.9L143.6 189.3ZM242.1 263.5L242.4 263.1L144.1 188.7L143.8 189.1ZM242.3 263.2L242.6 262.8L144.3 188.4L144 188.8ZM242.5 263L242.8 262.6L144.5 188.1L144.2 188.5ZM242.7 262.7L243 262.3L144.7 187.9L144.4 188.3ZM242.9 262.4L243.2 262L144.9 187.6L144.6 188ZM243.1 262.2L243.4 261.8L145.1 187.3L144.8 187.7ZM243.3 261.9L243.6 261.5L145.3 187.1L145 187.5ZM243.5 261.6L243.8 261.2L145.5 186.8L145.2 187.2ZM243.7 261.4L244 261L145.7 186.5L145.4 186.9ZM243.9 261.1L244.2 260.7L145.9 186.3L145.6 186.7ZM244.1 260.9L244.4 260.5L146.1 186L145.8 186.4ZM244.3 260.6L244.6 260.2L146.3 185.7L146 186.1ZM244.5 260.3L244.8 259.9L146.5 185.5L146.2 185.9ZM244.7 260.1L245 259.7L146.7 185.2L146.4 185.6ZM244.9 259.8L245.2 259.4L146.9 185L146.6 185.3ZM245.1 259.5L245.5 259.1L147.1 184.7L146.8 185.1ZM245.3 259.3L245.7 258.9L147.3 184.4L147 184.8ZM245.6 259L245.9 258.6L147.5 184.2L147.2 184.6ZM245.8 258.7L246.1 258.3L147.7 183.9L147.4 184.3ZM246 258.5L246.3 258.1L147.9 183.6L147.6 184ZM246.2 258.2L246.5 257.8L148.1 183.4L147.8 183.8ZM246.4 257.9L246.7 257.5L148.3 183.1L148 183.5ZM246.6 257.7L246.9 257.3L148.5 182.8L148.2 183.2ZM246.8 257.4L247.1 257L148.7 182.6L148.4 183ZM247 257.1L247.3 256.7L148.9 182.3L148.6 182.7ZM247.2 256.9L247.5 256.5L149.1 182L148.8 182.4ZM247.4 256.6L247.7 256.2L149.3 181.8L149 182.2ZM247.6 256.3L247.9 255.9L149.5 181.5L149.2 181.9ZM247.8 256.1L248.1 255.7L149.7 181.2L149.4 181.6ZM248 255.8L248.3 255.4L149.9 181L149.6 181.4ZM248.2 255.5L248.5 255.1L150.2 180.7L149.8 181.1ZM248.4 255.3L248.7 254.9L150.4 180.4L150.1 180.8ZM248.6 255L248.9 254.6L150.6 180.2L150.3 180.6ZM248.8 254.7L249.1 254.3L150.8 179.9L150.5 180.3ZM249 254.5L249.3 254.1L151 179.6L150.7 180ZM249.2 254.2L249.5 253.8L151.2 179.4L150.9 179.8ZM249.4 253.9L249.7 253.5L151.4 179.1L151.1 179.5ZM266.9 230.8L267.2 230.4L168.9 156L168.6 156.4ZM267.1 230.5L267.4 230.1L169.1 155.7L168.8 156.1ZM267.3 230.3L267.6 229.9L169.3 155.4L169 155.8ZM267.5 230L267.8 229.6L169.5 155.2L169.2 155.6ZM267.7 229.7L268 229.3L169.7 154.9L169.4 155.3ZM267.9 229.5L268.2 229.1L169.9 154.6L169.6 155ZM268.1 229.2L268.4 228.8L170.1 154.4L169.8 154.8ZM268.3 228.9L268.6 228.5L170.3 154.1L170 154.5ZM268.5 228.7L268.8 228.3L170.5 153.8L170.2 154.2ZM268.7 228.4L269 228L170.7 153.6L170.4 154ZM268.9 228.1L269.2 227.7L170.9 153.3L170.6 153.7ZM269.1 227.9L269.4 227.5L171.1 153L170.8 153.4ZM269.3 227.6L269.6 227.2L171.3 152.8L171 153.2ZM269.5 227.3L269.8 226.9L171.5 152.5L171.2 152.9ZM269.7 227.1L270 226.7L171.7 152.2L171.4 152.6ZM269.9 226.8L270.2 226.4L171.9 152L171.6 152.4ZM270.1 226.6L270.4 226.2L172.1 151.7L171.8 152.1ZM270.3 226.3L270.6 225.9L172.3 151.4L172 151.8ZM270.5 226L270.8 225.6L172.5 151.2L172.2 151.6ZM270.7 225.8L271 225.4L172.7 150.9L172.4 151.3ZM270.9 225.5L271.2 225.1L172.9 150.7L172.6 151ZM271.1 225.2L271.4 224.8L173.1 150.4L172.8 150.8ZM271.3 225L271.6 224.6L173.3 150.1L173 150.5ZM273.9 221.5L274.2 221.1L175.9 146.7L175.6 147.1ZM274.1 221.2L274.4 220.8L176.1 146.4L175.8 146.8ZM274.3 221L274.6 220.6L176.3 146.1L176 146.5ZM274.5 220.7L274.8 220.3L176.5 145.9L176.2 146.3ZM274.7 220.4L275 220L176.7 145.6L176.4 146ZM274.9 220.2L275.2 219.8L176.9 145.3L176.6 145.7ZM275.1 219.9L275.4 219.5L177.1 145.1L176.8 145.5ZM275.3 219.6L275.6 219.2L177.3 144.8L177 145.2ZM275.5 219.4L275.8 219L177.5 144.5L177.2 144.9ZM275.7 219.1L276 218.7L177.7 144.3L177.4 144.7ZM171.9 181L172.2 180.6L141.6 157.9L141.3 158.3ZM172.3 180.5L172.6 180.1L142 157.3L141.7 157.8ZM172.5 180.2L172.8 179.8L142.2 157.1L141.9 157.5ZM172.7 179.9L173 179.5L142.4 156.8L142.1 157.2ZM172.9 179.7L173.2 179.3L142.6 156.5L142.3 156.9ZM173.1 179.4L173.4 179L142.8 156.3L142.5 156.7ZM173.3 179.1L173.6 178.7L143 156L142.7 156.4ZM173.5 178.9L173.8 178.5L143.2 155.7L142.9 156.1ZM173.7 178.6L174 178.2L143.4 155.5L143.1 155.9ZM173.9 178.3L174.2 177.9L143.6 155.2L143.3 155.6ZM174.1 178.1L174.4 177.6L143.8 154.9L143.5 155.3ZM174.3 177.8L174.6 177.4L144 154.7L143.7 155.1ZM174.5 177.5L174.8 177.1L144.2 154.4L143.9 154.8ZM174.7 177.2L175 176.8L144.4 154.1L144.1 154.5ZM174.9 177L175.2 176.6L144.6 153.9L144.3 154.3ZM175.1 176.7L175.4 176.3L144.8 153.6L144.5 154ZM175.3 176.4L175.6 176L145 153.3L144.7 153.7ZM175.5 176.2L175.8 175.8L145.2 153L144.9 153.4ZM175.7 175.9L176 175.5L145.4 152.8L145.1 153.2ZM175.9 175.6L176.2 175.2L145.6 152.5L145.3 152.9ZM176.1 175.4L176.4 175L145.8 152.2L145.5 152.6ZM176.3 175.1L176.6 174.7L146 152L145.7 152.4ZM176.5 174.8L176.8 174.4L146.2 151.7L145.9 152.1ZM176.7 174.6L177 174.2L146.4 151.4L146.1 151.8ZM176.9 174.3L177.2 173.9L146.6 151.2L146.3 151.6ZM177.1 174L177.4 173.6L146.8 150.9L146.5 151.3ZM177.3 173.7L177.6 173.3L147 150.6L146.7 151ZM177.5 173.5L177.8 173.1L147.2 150.4L146.9 150.8ZM177.7 173.2L178 172.8L147.4 150.1L147.1 150.5ZM177.9 172.9L178.2 172.5L147.6 149.8L147.3 150.2ZM178.1 172.7L178.4 172.3L147.8 149.6L147.5 150ZM178.3 172.4L178.6 172L148 149.3L147.7 149.7ZM178.5 172.1L178.8 171.7L148.2 149L147.9 149.4ZM178.7 171.9L179 171.5L148.4 148.7L148.1 149.1ZM178.9 171.6L179.2 171.2L148.6 148.5L148.3 148.9ZM179.1 171.3L179.4 170.9L148.8 148.2L148.5 148.6ZM179.3 171.1L179.6 170.7L149 147.9L148.7 148.3ZM179.5 170.8L179.8 170.4L149.2 147.7L148.9 148.1ZM179.7 170.5L180 170.1L149.4 147.4L149.1 147.8ZM179.9 170.3L180.2 169.9L149.6 147.1L149.3 147.5ZM180.1 170L180.4 169.6L149.8 146.9L149.5 147.3ZM180.3 169.7L180.6 169.3L150 146.6L149.7 147ZM180.5 169.4L180.8 169L150.2 146.3L149.9 146.7ZM180.7 169.2L181 168.8L150.4 146.1L150.1 146.5ZM180.9 168.9L181.2 168.5L150.6 145.8L150.3 146.2ZM181.1 168.6L181.4 168.2L150.8 145.5L150.5 145.9ZM181.3 168.4L181.6 168L151 145.3L150.7 145.7ZM181.5 168.1L181.8 167.7L151.2 145L150.9 145.4ZM181.7 167.8L182 167.4L151.4 144.7L151.1 145.1ZM181.9 167.6L182.2 167.2L151.6 144.4L151.3 144.8ZM182.1 167.3L182.4 166.9L151.8 144.2L151.5 144.6ZM182.3 167L182.6 166.6L152 143.9L151.7 144.3ZM182.5 166.8L182.8 166.4L152.2 143.6L151.9 144ZM182.7 166.5L183 166.1L152.4 143.4L152.1 143.8ZM182.9 166.2L183.2 165.8L152.6 143.1L152.3 143.5ZM183.1 166L183.4 165.6L152.8 142.8L152.5 143.2ZM183.3 165.7L183.6 165.3L153 142.6L152.7 143ZM183.5 165.4L183.8 165L153.2 142.3L152.9 142.7ZM183.7 165.1L184 164.7L153.4 142L153.1 142.4ZM183.9 164.9L184.2 164.5L153.6 141.8L153.3 142.2ZM184.1 164.6L184.4 164.2L153.8 141.5L153.5 141.9ZM184.3 164.3L184.6 163.9L154 141.2L153.7 141.6ZM184.5 164.1L184.4 164.1L153.9 141.4L153.9 141.4ZM183.5 188.2L183.7 187.9L163.6 173L163.4 173.3ZM183.6 188.1L183.9 187.7L163.8 172.8L163.5 173.2ZM183.8 187.8L184.1 187.4L164 172.5L163.7 172.9ZM184 187.5L184.3 187.1L164.2 172.2L163.9 172.6ZM184.2 187.3L184.5 186.9L164.4 171.9L164.1 172.3ZM184.4 187L184.7 186.6L164.6 171.7L164.3 172.1ZM184.6 186.7L184.9 186.3L164.8 171.4L164.5 171.8ZM184.8 186.4L185.1 186L165 171.1L164.7 171.5ZM185 186.2L185.3 185.8L165.2 170.9L164.9 171.3ZM185.2 185.9L185.5 185.5L165.4 170.6L165.1 171ZM185.4 185.6L185.7 185.2L165.6 170.3L165.3 170.7ZM185.6 185.4L185.9 185L165.8 170.1L165.5 170.5ZM185.8 185.1L186.1 184.7L166 169.8L165.7 170.2ZM186 184.8L186.3 184.4L166.2 169.5L165.9 169.9ZM186.2 184.6L186.5 184.2L166.4 169.3L166.1 169.7ZM186.4 184.3L186.7 183.9L166.6 169L166.3 169.4ZM186.6 184L186.9 183.6L166.8 168.7L166.5 169.1ZM186.8 183.8L187.1 183.4L167 168.4L166.7 168.9ZM187 183.5L187.3 183.1L167.2 168.2L166.9 168.6ZM187.2 183.2L187.5 182.8L167.4 167.9L167.1 168.3ZM187.4 183L187.7 182.6L167.6 167.6L167.3 168ZM187.6 182.7L187.9 182.3L167.8 167.4L167.5 167.8ZM187.8 182.4L188.1 182L168 167.1L167.7 167.5ZM188 182.1L188.3 181.7L168.2 166.8L167.9 167.2ZM188.2 181.9L188.5 181.5L168.4 166.6L168.1 167ZM188.4 181.6L188.7 181.2L168.6 166.3L168.3 166.7ZM188.6 181.3L188.9 180.9L168.8 166L168.5 166.4ZM188.8 181.1L189.1 180.7L169 165.8L168.7 166.2ZM189 180.8L189.3 180.4L169.2 165.5L168.9 165.9ZM189.2 180.5L189.5 180.1L169.4 165.2L169.1 165.6ZM189.4 180.3L189.7 179.9L169.6 165L169.3 165.4ZM189.6 180L189.9 179.6L169.8 164.7L169.5 165.1ZM189.8 179.7L190.1 179.3L170 164.4L169.7 164.8ZM190 179.5L190.3 179.1L170.2 164.1L169.9 164.6ZM190.2 179.2L190.5 178.8L170.4 163.9L170.1 164.3ZM190.4 178.9L190.7 178.5L170.6 163.6L170.3 164ZM190.6 178.7L190.9 178.2L170.8 163.3L170.5 163.7ZM190.8 178.4L191.1 178L171 163.1L170.7 163.5ZM191 178.1L191.3 177.7L171.2 162.8L170.9 163.2ZM191.2 177.8L191.5 177.4L171.4 162.5L171.1 162.9ZM191.4 177.6L191.7 177.2L171.6 162.3L171.3 162.7ZM191.6 177.3L191.9 176.9L171.8 162L171.5 162.4ZM191.8 177L192.1 176.6L172 161.7L171.7 162.1ZM192 176.8L192.3 176.4L172.2 161.5L171.9 161.9ZM192.2 176.5L192.5 176.1L172.4 161.2L172.1 161.6ZM192.4 176.2L192.7 175.8L172.6 160.9L172.3 161.3ZM192.6 176L192.9 175.6L172.8 160.7L172.5 161.1ZM192.8 175.7L193.1 175.3L173 160.4L172.7 160.8ZM193 175.4L193.3 175L173.2 160.1L172.9 160.5ZM193.2 175.2L193.5 174.8L173.4 159.8L173.1 160.3ZM193.4 174.9L193.7 174.5L173.6 159.6L173.3 160ZM193.6 174.6L193.9 174.2L173.8 159.3L173.5 159.7ZM193.8 174.4L194.1 173.9L174 159L173.7 159.4ZM194 174.1L194.3 173.7L174.2 158.8L173.9 159.2ZM194.2 173.8L194.5 173.4L174.4 158.5L174.1 158.9ZM194.4 173.5L194.7 173.1L174.6 158.2L174.3 158.6ZM194.6 173.3L194.9 172.9L174.8 158L174.5 158.4ZM194.8 173L195.1 172.6L175 157.7L174.7 158.1ZM195 172.7L195.3 172.3L175.2 157.4L174.9 157.8ZM195.2 172.5L195.5 172.1L175.4 157.2L175.1 157.6ZM195.4 172.2L195.7 171.8L175.6 156.9L175.3 157.3ZM195.6 171.9L195.9 171.5L175.8 156.6L175.5 157ZM226.7 200.6L226.9 200.4L194.3 176.2L194.2 176.4ZM226.8 200.6L227.1 200.2L194.5 175.9L194.2 176.3ZM227 200.3L227.3 199.9L194.7 175.7L194.4 176.1ZM227.2 200L227.5 199.6L194.9 175.4L194.6 175.8ZM227.4 199.8L227.7 199.4L195.1 175.1L194.8 175.5ZM227.6 199.5L227.9 199.1L195.3 174.9L195 175.3ZM227.8 199.2L228.1 198.8L195.5 174.6L195.2 175ZM228 199L228.3 198.6L195.7 174.3L195.4 174.7ZM228.2 198.7L228.5 198.3L195.9 174.1L195.6 174.5ZM228.4 198.4L228.7 198L196.1 173.8L195.8 174.2ZM228.6 198.1L228.9 197.7L196.3 173.5L196 173.9ZM228.8 197.9L229.1 197.5L196.5 173.2L196.2 173.7ZM229 197.6L229.3 197.2L196.7 173L196.4 173.4ZM229.2 197.3L229.5 196.9L196.9 172.7L196.6 173.1ZM229.4 197.1L229.7 196.7L197.1 172.4L196.8 172.8ZM246.8 173.7L247.1 173.3L214.5 149.1L214.2 149.5ZM247 173.4L247.3 173L214.7 148.8L214.4 149.2ZM247.2 173.1L247.5 172.7L214.9 148.5L214.6 148.9ZM247.4 172.9L247.7 172.5L215.1 148.2L214.8 148.7ZM247.6 172.6L247.9 172.2L215.3 148L215 148.4ZM247.8 172.3L248.1 171.9L215.5 147.7L215.2 148.1ZM248 172.1L248.3 171.7L215.7 147.4L215.4 147.8ZM248.2 171.8L248.5 171.4L215.9 147.2L215.6 147.6ZM248.4 171.5L248.7 171.1L216.1 146.9L215.8 147.3ZM248.6 171.3L248.9 170.9L216.3 146.6L216 147ZM248.8 171L249.1 170.6L216.5 146.4L216.2 146.8ZM249 170.7L249.3 170.3L216.7 146.1L216.4 146.5ZM249.2 170.5L249.5 170.1L216.9 145.8L216.6 146.2ZM249.4 170.2L249.7 169.8L217.1 145.6L216.8 146ZM249.6 169.9L249.9 169.5L217.3 145.3L217 145.7ZM249.8 169.7L250.1 169.3L217.5 145L217.2 145.4ZM250 169.4L250.3 169L217.7 144.8L217.4 145.2ZM250.2 169.1L250.5 168.7L217.9 144.5L217.6 144.9ZM250.4 168.8L250.7 168.4L218.1 144.2L217.8 144.6ZM250.6 168.6L250.9 168.2L218.3 143.9L218 144.4ZM250.8 168.3L251.1 167.9L218.5 143.7L218.2 144.1ZM251 168L251.3 167.6L218.7 143.4L218.4 143.8ZM251.2 167.8L251.5 167.4L218.9 143.1L218.6 143.5ZM266.3 188.3L266.6 187.8L236.3 165.3L236 165.7ZM266.5 188L266.8 187.6L236.5 165L236.2 165.4ZM266.7 187.7L267 187.3L236.7 164.7L236.4 165.1ZM266.9 187.4L267.2 187L236.9 164.5L236.6 164.9ZM267.1 187.2L267.4 186.8L237.1 164.2L236.8 164.6ZM267.3 186.9L267.6 186.5L237.3 163.9L237 164.3ZM267.5 186.6L267.8 186.2L237.5 163.6L237.2 164ZM267.7 186.4L268 186L237.7 163.4L237.4 163.8ZM267.9 186.1L268.2 185.7L237.9 163.1L237.6 163.5ZM268.1 185.8L268.4 185.4L238.1 162.8L237.8 163.2ZM268.3 185.6L268.6 185.2L238.3 162.6L238 163ZM268.5 185.3L268.8 184.9L238.5 162.3L238.2 162.7ZM268.7 185L269 184.6L238.7 162L238.4 162.4ZM268.9 184.8L269.2 184.4L238.9 161.8L238.6 162.2ZM269.1 184.5L269.4 184.1L239.1 161.5L238.8 161.9ZM269.3 184.2L269.6 183.8L239.3 161.2L239 161.6ZM269.5 184L269.8 183.5L239.5 161L239.2 161.4ZM269.7 183.7L270 183.3L239.7 160.7L239.4 161.1ZM269.9 183.4L270.2 183L239.9 160.4L239.6 160.8ZM270.1 183.1L270.4 182.7L240.1 160.1L239.8 160.6ZM270.3 182.9L270.6 182.5L240.3 159.9L240 160.3ZM270.5 182.6L270.8 182.2L240.5 159.6L240.2 160ZM270.7 182.3L271 181.9L240.7 159.3L240.4 159.7ZM273.3 178.8L273.6 178.4L243.3 155.8L243 156.3ZM273.5 178.6L273.8 178.2L243.5 155.6L243.2 156ZM273.7 178.3L274 177.9L243.7 155.3L243.4 155.7ZM273.9 178L274.2 177.6L243.9 155L243.6 155.4ZM274.1 177.8L274.4 177.4L244.1 154.8L243.8 155.2ZM274.3 177.5L274.6 177.1L244.3 154.5L244 154.9ZM274.5 177.2L274.8 176.8L244.5 154.2L244.2 154.6ZM274.7 177L275 176.6L244.7 154L244.4 154.4ZM274.9 176.7L275.2 176.3L244.9 153.7L244.6 154.1ZM275.1 176.4L275.4 176L245.1 153.4L244.8 153.8ZM60.9 223L61.2 223L48.3 147L48.1 147ZM61.2 222.9L61.4 222.9L48.5 146.9L48.3 147ZM61.4 222.9L61.6 222.9L48.7 146.9L48.5 146.9ZM61.5 222.9L61.7 222.9L48.8 146.9L48.6 146.9ZM61.6 222.9L61.9 222.8L49 146.8L48.8 146.9ZM61.8 222.8L62 222.8L49.1 146.8L48.9 146.9ZM61.9 222.8L62.1 222.8L49.3 146.8L49 146.8ZM62.1 222.8L62.3 222.8L49.4 146.8L49.2 146.8ZM62.2 222.8L62.4 222.7L49.5 146.7L49.3 146.8ZM62.4 222.7L62.6 222.7L49.7 146.7L49.5 146.8ZM62.5 222.7L62.7 222.7L49.8 146.7L49.6 146.7ZM62.6 222.7L62.9 222.7L50 146.7L49.8 146.7ZM62.8 222.7L63 222.6L50.1 146.7L49.9 146.7ZM62.9 222.7L63.1 222.6L50.2 146.6L50 146.7ZM63.1 222.6L63.3 222.6L50.4 146.6L50.2 146.6ZM63.2 222.6L63.4 222.6L50.5 146.6L50.3 146.6ZM63.3 222.6L63.6 222.5L50.7 146.6L50.5 146.6ZM63.5 222.6L63.7 222.5L50.8 146.5L50.6 146.6ZM63.6 222.5L63.8 222.5L51 146.5L50.7 146.5ZM63.8 222.5L64 222.5L51.1 146.5L50.9 146.5ZM63.9 222.5L64.1 222.4L51.2 146.5L51 146.5ZM64.1 222.5L64.3 222.4L51.4 146.4L51.2 146.5ZM64.2 222.4L64.4 222.4L51.5 146.4L51.3 146.4ZM64.3 222.4L64.6 222.4L51.7 146.4L51.5 146.4ZM64.5 222.4L64.7 222.4L51.8 146.4L51.6 146.4ZM64.6 222.4L64.8 222.3L51.9 146.3L51.7 146.4ZM64.8 222.3L65 222.3L52.1 146.3L51.9 146.4ZM64.9 222.3L65.1 222.3L52.2 146.3L52 146.3ZM65 222.3L65.3 222.3L52.4 146.3L52.2 146.3ZM65.2 222.3L65.4 222.2L52.5 146.2L52.3 146.3ZM65.3 222.2L65.5 222.2L52.7 146.2L52.4 146.3ZM65.5 222.2L65.7 222.2L52.8 146.2L52.6 146.2ZM65.6 222.2L65.8 222.2L52.9 146.2L52.7 146.2ZM65.8 222.2L66 222.1L53.1 146.1L52.9 146.2ZM65.9 222.1L66.1 222.1L53.2 146.1L53 146.2ZM66 222.1L66.3 222.1L53.4 146.1L53.1 146.1ZM66.2 222.1L66.4 222.1L53.5 146.1L53.3 146.1ZM66.3 222.1L66.5 222L53.6 146.1L53.4 146.1ZM66.5 222.1L66.7 222L53.8 146L53.6 146.1ZM66.6 222L66.8 222L53.9 146L53.7 146ZM66.7 222L67 222L54.1 146L53.9 146ZM66.9 222L67.1 221.9L54.2 146L54 146ZM67 222L67.2 221.9L54.4 145.9L54.1 146ZM67.2 221.9L67.4 221.9L54.5 145.9L54.3 145.9ZM67.3 221.9L67.5 221.9L54.6 145.9L54.4 145.9ZM67.5 221.9L67.7 221.8L54.8 145.9L54.6 145.9ZM67.6 221.9L67.8 221.8L54.9 145.8L54.7 145.9ZM67.7 221.8L67.9 221.8L55.1 145.8L54.8 145.8ZM67.9 221.8L68.1 221.8L55.2 145.8L55 145.8ZM68 221.8L68.2 221.8L55.3 145.8L55.1 145.8ZM68.2 221.8L68.4 221.7L55.5 145.7L55.3 145.8ZM68.3 221.7L68.5 221.7L55.6 145.7L55.4 145.7ZM68.4 221.7L68.7 221.7L55.8 145.7L55.6 145.7ZM68.6 221.7L68.8 221.7L55.9 145.7L55.7 145.7ZM68.7 221.7L68.9 221.6L56.1 145.6L55.8 145.7ZM68.9 221.6L69.1 221.6L56.2 145.6L56 145.7ZM69 221.6L69.2 221.6L56.3 145.6L56.1 145.6ZM69.2 221.6L69.4 221.6L56.5 145.6L56.3 145.6ZM69.3 221.6L69.5 221.5L56.6 145.5L56.4 145.6ZM69.4 221.5L69.6 221.5L56.8 145.5L56.5 145.6ZM69.6 221.5L69.8 221.5L56.9 145.5L56.7 145.5ZM69.7 221.5L69.9 221.5L57 145.5L56.8 145.5ZM69.9 221.5L70.1 221.4L57.2 145.4L57 145.5ZM70 221.5L70.2 221.4L57.3 145.4L57.1 145.5ZM82.3 219.4L82.5 219.3L69.6 143.3L69.4 143.4ZM82.5 219.3L82.7 219.3L69.8 143.3L69.6 143.3ZM82.6 219.3L82.8 219.3L69.9 143.3L69.7 143.3ZM82.7 219.3L83 219.3L70.1 143.3L69.9 143.3ZM82.9 219.3L83.1 219.2L70.2 143.2L70 143.3ZM83 219.2L83.2 219.2L70.4 143.2L70.1 143.3ZM83.2 219.2L83.4 219.2L70.5 143.2L70.3 143.2ZM83.3 219.2L83.5 219.2L70.6 143.2L70.4 143.2ZM83.5 219.2L83.7 219.1L70.8 143.1L70.6 143.2ZM83.6 219.1L83.8 219.1L70.9 143.1L70.7 143.2ZM83.7 219.1L83.9 219.1L71.1 143.1L70.8 143.1ZM83.9 219.1L84.1 219.1L71.2 143.1L71 143.1ZM84 219.1L84.2 219L71.3 143L71.1 143.1ZM84.2 219L84.4 219L71.5 143L71.3 143.1ZM84.3 219L84.5 219L71.6 143L71.4 143ZM84.4 219L84.7 219L71.8 143L71.6 143ZM84.6 219L84.8 218.9L71.9 143L71.7 143ZM84.7 219L84.9 218.9L72 142.9L71.8 143ZM84.9 218.9L85.1 218.9L72.2 142.9L72 142.9ZM85 218.9L85.2 218.9L72.3 142.9L72.1 142.9ZM85.2 218.9L85.4 218.8L72.5 142.9L72.3 142.9ZM85.3 218.9L85.5 218.8L72.6 142.8L72.4 142.9ZM85.4 218.8L85.6 218.8L72.8 142.8L72.5 142.8ZM87.3 218.5L87.5 218.5L74.6 142.5L74.4 142.5ZM87.4 218.5L87.6 218.5L74.7 142.5L74.5 142.5ZM87.6 218.5L87.8 218.4L74.9 142.4L74.7 142.5ZM87.7 218.4L87.9 218.4L75 142.4L74.8 142.5ZM87.8 218.4L88.1 218.4L75.2 142.4L75 142.4ZM88 218.4L88.2 218.4L75.3 142.4L75.1 142.4ZM88.1 218.4L88.3 218.3L75.4 142.4L75.2 142.4ZM88.3 218.4L88.5 218.3L75.6 142.3L75.4 142.4ZM88.4 218.3L88.6 218.3L75.7 142.3L75.5 142.3ZM88.5 218.3L88.8 218.3L75.9 142.3L75.7 142.3ZM97.7 224.5L97.9 224.3L60.2 192.2L60 192.4ZM98 224.2L98.1 224L60.5 191.9L60.3 192.1ZM98.1 224L98.3 223.8L60.6 191.7L60.4 192ZM98.2 223.9L98.4 223.7L60.7 191.6L60.5 191.8ZM98.3 223.7L98.5 223.5L60.8 191.4L60.6 191.7ZM98.5 223.6L98.7 223.4L61 191.3L60.8 191.5ZM98.6 223.4L98.8 223.2L61.1 191.2L60.9 191.4ZM98.7 223.3L98.9 223.1L61.2 191L61 191.2ZM98.8 223.1L99 222.9L61.3 190.9L61.2 191.1ZM99 223L99.2 222.8L61.5 190.7L61.3 190.9ZM99.1 222.8L99.3 222.6L61.6 190.6L61.4 190.8ZM99.2 222.7L99.4 222.5L61.7 190.4L61.5 190.6ZM99.4 222.5L99.5 222.3L61.9 190.3L61.7 190.5ZM99.5 222.4L99.7 222.2L62 190.1L61.8 190.3ZM99.6 222.2L99.8 222L62.1 190L61.9 190.2ZM99.7 222.1L99.9 221.9L62.2 189.8L62 190ZM99.9 221.9L100 221.7L62.4 189.7L62.2 189.9ZM100 221.8L100.2 221.6L62.5 189.5L62.3 189.7ZM100.1 221.6L100.3 221.4L62.6 189.4L62.4 189.6ZM100.2 221.5L100.4 221.3L62.7 189.2L62.6 189.4ZM100.4 221.3L100.6 221.1L62.9 189.1L62.7 189.3ZM100.5 221.2L100.7 221L63 188.9L62.8 189.1ZM100.6 221L100.8 220.8L63.1 188.8L62.9 189ZM100.7 220.9L100.9 220.7L63.3 188.6L63.1 188.8ZM100.9 220.7L101.1 220.5L63.4 188.5L63.2 188.7ZM101 220.6L101.2 220.4L63.5 188.3L63.3 188.5ZM101.1 220.4L101.3 220.2L63.6 188.2L63.4 188.4ZM101.3 220.3L101.4 220.1L63.8 188L63.6 188.2ZM101.4 220.1L101.6 219.9L63.9 187.9L63.7 188.1ZM101.5 220L101.7 219.8L64 187.7L63.8 187.9ZM101.6 219.8L101.8 219.6L64.1 187.6L64 187.8ZM101.8 219.7L102 219.5L64.3 187.4L64.1 187.6ZM101.9 219.5L102.1 219.3L64.4 187.3L64.2 187.5ZM102 219.4L102.2 219.2L64.5 187.1L64.3 187.3ZM102.1 219.2L102.3 219L64.6 187L64.5 187.2ZM102.3 219.1L102.5 218.9L64.8 186.8L64.6 187ZM102.4 218.9L102.6 218.7L64.9 186.7L64.7 186.9ZM102.5 218.8L102.7 218.6L65 186.5L64.8 186.7ZM102.7 218.7L102.8 218.4L65.2 186.4L65 186.6ZM102.8 218.5L103 218.3L65.3 186.2L65.1 186.4ZM102.9 218.4L103.1 218.1L65.4 186.1L65.2 186.3ZM103 218.2L103.2 218L65.5 185.9L65.3 186.1ZM103.2 218.1L103.4 217.8L65.7 185.8L65.5 186ZM103.3 217.9L103.5 217.7L65.8 185.6L65.6 185.8ZM103.4 217.8L103.6 217.5L65.9 185.5L65.7 185.7ZM103.5 217.6L103.7 217.4L66 185.3L65.9 185.6ZM103.7 217.5L103.9 217.2L66.2 185.2L66 185.4ZM103.8 217.3L104 217.1L66.3 185L66.1 185.3ZM103.9 217.2L104.1 216.9L66.4 184.9L66.2 185.1ZM104.1 217L104.2 216.8L66.6 184.7L66.4 185ZM104.2 216.9L104.4 216.6L66.7 184.6L66.5 184.8ZM104.3 216.7L104.5 216.5L66.8 184.4L66.6 184.7ZM104.4 216.6L104.6 216.3L66.9 184.3L66.7 184.5ZM104.6 216.4L104.7 216.2L67.1 184.1L66.9 184.4ZM104.7 216.3L104.9 216L67.2 184L67 184.2ZM104.8 216.1L105 215.9L67.3 183.8L67.1 184.1ZM104.9 216L105.1 215.7L67.4 183.7L67.3 183.9ZM105.1 215.8L105.3 215.6L67.6 183.5L67.4 183.8ZM105.2 215.7L105.4 215.4L67.7 183.4L67.5 183.6ZM105.3 215.5L105.5 215.3L67.8 183.2L67.6 183.5ZM105.4 215.4L105.6 215.1L68 183.1L67.8 183.3ZM105.6 215.2L105.8 215L68.1 182.9L67.9 183.2ZM105.7 215.1L105.9 214.8L68.2 182.8L68 183ZM105.8 214.9L106 214.7L68.3 182.6L68.1 182.9ZM116.9 201.9L117.1 201.7L79.4 169.6L79.2 169.9ZM117 201.8L117.2 201.6L79.5 169.5L79.3 169.7ZM117.1 201.6L117.3 201.4L79.6 169.3L79.4 169.6ZM117.3 201.5L117.5 201.3L79.8 169.2L79.6 169.4ZM117.4 201.3L117.6 201.1L79.9 169L79.7 169.3ZM117.5 201.2L117.7 201L80 168.9L79.8 169.1ZM117.6 201L117.8 200.8L80.1 168.7L80 169ZM117.8 200.9L118 200.7L80.3 168.6L80.1 168.8ZM117.9 200.7L118.1 200.5L80.4 168.4L80.2 168.7ZM118 200.6L118.2 200.4L80.5 168.3L80.3 168.5ZM118.2 200.4L118.3 200.2L80.7 168.2L80.5 168.4ZM118.3 200.3L118.5 200.1L80.8 168L80.6 168.2ZM118.4 200.1L118.6 199.9L80.9 167.9L80.7 168.1ZM118.5 200L118.7 199.8L81 167.7L80.8 167.9ZM118.7 199.8L118.8 199.6L81.2 167.6L81 167.8ZM118.8 199.7L119 199.5L81.3 167.4L81.1 167.6ZM118.9 199.5L119.1 199.3L81.4 167.3L81.2 167.5ZM119 199.4L119.2 199.2L81.5 167.1L81.4 167.3ZM119.2 199.2L119.4 199L81.7 167L81.5 167.2ZM119.3 199.1L119.5 198.9L81.8 166.8L81.6 167ZM119.4 198.9L119.6 198.7L81.9 166.7L81.7 166.9ZM119.5 198.8L119.7 198.6L82.1 166.5L81.9 166.7ZM119.7 198.6L119.9 198.4L82.2 166.4L82 166.6ZM121.3 196.7L121.5 196.5L83.8 164.4L83.6 164.6ZM121.5 196.5L121.6 196.3L84 164.3L83.8 164.5ZM121.6 196.4L121.8 196.2L84.1 164.1L83.9 164.3ZM121.7 196.2L121.9 196L84.2 164L84 164.2ZM121.8 196.1L122 195.9L84.3 163.8L84.1 164ZM122 195.9L122.2 195.7L84.5 163.7L84.3 163.9ZM122.1 195.8L122.3 195.6L84.6 163.5L84.4 163.7ZM122.2 195.7L122.4 195.4L84.7 163.4L84.5 163.6ZM122.3 195.5L122.5 195.3L84.8 163.2L84.7 163.4ZM122.5 195.4L122.7 195.1L85 163.1L84.8 163.3ZM118.4 187.9L118.5 187.7L60.6 166L60.5 166.3ZM118.5 187.6L118.6 187.4L60.7 165.7L60.6 166ZM118.5 187.4L118.6 187.2L60.7 165.6L60.7 165.8ZM118.6 187.3L118.7 187.1L60.8 165.4L60.7 165.7ZM118.7 187.1L118.7 186.9L60.9 165.3L60.8 165.5ZM118.7 187L118.8 186.8L60.9 165.2L60.8 165.4ZM118.8 186.9L118.8 186.6L61 165L60.9 165.2ZM118.8 186.7L118.9 186.5L61 164.9L60.9 165.1ZM118.9 186.6L119 186.3L61.1 164.7L61 164.9ZM118.9 186.4L119 186.2L61.1 164.6L61 164.8ZM119 186.3L119.1 186L61.2 164.4L61.1 164.6ZM119 186.1L119.1 185.9L61.2 164.3L61.2 164.5ZM119.1 186L119.2 185.7L61.3 164.1L61.2 164.3ZM119.2 185.8L119.2 185.6L61.3 164L61.3 164.2ZM119.2 185.7L119.3 185.4L61.4 163.8L61.3 164ZM119.3 185.5L119.3 185.3L61.5 163.7L61.4 163.9ZM119.3 185.4L119.4 185.2L61.5 163.5L61.4 163.8ZM119.4 185.2L119.5 185L61.6 163.4L61.5 163.6ZM119.4 185.1L119.5 184.9L61.6 163.2L61.5 163.5ZM119.5 184.9L119.6 184.7L61.7 163.1L61.6 163.3ZM119.5 184.8L119.6 184.6L61.7 162.9L61.7 163.2ZM119.6 184.6L119.7 184.4L61.8 162.8L61.7 163ZM119.6 184.5L119.7 184.3L61.8 162.6L61.8 162.9ZM119.7 184.3L119.8 184.1L61.9 162.5L61.8 162.7ZM119.8 184.2L119.8 184L62 162.3L61.9 162.6ZM119.8 184L119.9 183.8L62 162.2L61.9 162.4ZM119.9 183.9L119.9 183.7L62.1 162.1L62 162.3ZM119.9 183.8L120 183.5L62.1 161.9L62 162.1ZM120 183.6L120.1 183.4L62.2 161.8L62.1 162ZM120 183.5L120.1 183.2L62.2 161.6L62.1 161.8ZM120.1 183.3L120.2 183.1L62.3 161.5L62.2 161.7ZM120.1 183.2L120.2 182.9L62.3 161.3L62.3 161.5ZM120.2 183L120.3 182.8L62.4 161.2L62.3 161.4ZM120.3 182.9L120.3 182.6L62.5 161L62.4 161.2ZM120.3 182.7L120.4 182.5L62.5 160.9L62.4 161.1ZM120.4 182.6L120.4 182.3L62.6 160.7L62.5 160.9ZM120.4 182.4L120.5 182.2L62.6 160.6L62.5 160.8ZM120.5 182.3L120.6 182.1L62.7 160.4L62.6 160.7ZM120.5 182.1L120.6 181.9L62.7 160.3L62.6 160.5ZM120.6 182L120.7 181.8L62.8 160.1L62.7 160.4ZM120.6 181.8L120.7 181.6L62.8 160L62.8 160.2ZM120.7 181.7L120.8 181.5L62.9 159.8L62.8 160.1ZM120.7 181.5L120.8 181.3L62.9 159.7L62.9 159.9ZM120.8 181.4L120.9 181.2L63 159.5L62.9 159.8ZM120.9 181.2L120.9 181L63.1 159.4L63 159.6ZM120.9 181.1L121 180.9L63.1 159.3L63 159.5ZM121 180.9L121.1 180.7L63.2 159.1L63.1 159.3ZM121 180.8L121.1 180.6L63.2 159L63.1 159.2ZM121.1 180.7L121.2 180.4L63.3 158.8L63.2 159ZM121.1 180.5L121.2 180.3L63.3 158.7L63.3 158.9ZM121.2 180.4L121.3 180.1L63.4 158.5L63.3 158.7ZM121.2 180.2L121.3 180L63.4 158.4L63.4 158.6ZM121.3 180.1L121.4 179.8L63.5 158.2L63.4 158.4ZM121.4 179.9L121.4 179.7L63.6 158.1L63.5 158.3ZM121.4 179.8L121.5 179.5L63.6 157.9L63.5 158.1ZM121.5 179.6L121.5 179.4L63.7 157.8L63.6 158ZM121.5 179.5L121.6 179.3L63.7 157.6L63.6 157.8ZM121.6 179.3L121.7 179.1L63.8 157.5L63.7 157.7ZM121.6 179.2L121.7 179L63.8 157.3L63.7 157.6ZM121.7 179L121.8 178.8L63.9 157.2L63.8 157.4ZM121.7 178.9L121.8 178.7L63.9 157L63.9 157.3ZM121.8 178.7L121.9 178.5L64 156.9L63.9 157.1ZM121.9 178.6L121.9 178.4L64 156.7L64 157ZM121.9 178.4L122 178.2L64.1 156.6L64 156.8ZM126.7 165.6L126.8 165.4L68.9 143.8L68.8 144ZM126.8 165.5L126.8 165.2L69 143.6L68.9 143.8ZM126.8 165.3L126.9 165.1L69 143.5L68.9 143.7ZM126.9 165.2L127 164.9L69.1 143.3L69 143.5ZM126.9 165L127 164.8L69.1 143.2L69 143.4ZM127 164.9L127.1 164.6L69.2 143L69.1 143.2ZM127 164.7L127.1 164.5L69.2 142.9L69.1 143.1ZM127.1 164.6L127.2 164.3L69.3 142.7L69.2 142.9ZM127.1 164.4L127.2 164.2L69.3 142.6L69.3 142.8ZM127.2 164.3L127.3 164L69.4 142.4L69.3 142.6ZM127.3 164.1L127.3 163.9L69.5 142.3L69.4 142.5ZM127.3 164L127.4 163.8L69.5 142.1L69.4 142.4ZM127.4 163.8L127.4 163.6L69.6 142L69.5 142.2ZM127.4 163.7L127.5 163.5L69.6 141.8L69.5 142.1ZM127.5 163.5L127.6 163.3L69.7 141.7L69.6 141.9ZM127.5 163.4L127.6 163.2L69.7 141.5L69.6 141.8ZM127.6 163.2L127.7 163L69.8 141.4L69.7 141.6ZM127.6 163.1L127.7 162.9L69.8 141.2L69.8 141.5ZM127.7 162.9L127.8 162.7L69.9 141.1L69.8 141.3ZM127.8 162.8L127.8 162.6L69.9 141L69.9 141.2ZM127.8 162.6L127.9 162.4L70 140.8L69.9 141ZM127.9 162.5L127.9 162.3L70.1 140.7L70 140.9ZM127.9 162.4L128 162.1L70.1 140.5L70 140.7ZM128.6 160.4L128.7 160.2L70.8 138.6L70.7 138.8ZM128.7 160.3L128.8 160.1L70.9 138.4L70.8 138.7ZM128.7 160.1L128.8 159.9L70.9 138.3L70.9 138.5ZM128.8 160L128.9 159.8L71 138.1L70.9 138.4ZM128.9 159.8L128.9 159.6L71.1 138L71 138.2ZM128.9 159.7L129 159.5L71.1 137.9L71 138.1ZM129 159.5L129 159.3L71.2 137.7L71.1 137.9ZM129 159.4L129.1 159.2L71.2 137.6L71.1 137.8ZM129.1 159.3L129.2 159L71.3 137.4L71.2 137.6ZM129.1 159.1L129.2 158.9L71.3 137.3L71.2 137.5Z" fill="#e08c54"/><path d="M248.3 163.4L248.7 163.1L230.2 131.6L229.8 131.8ZM248.6 163.2L249 163L230.5 131.4L230.1 131.6ZM248.9 163L249.3 162.8L230.8 131.3L230.4 131.5ZM249.1 162.9L249.5 162.7L231 131.1L230.6 131.3ZM249.4 162.7L249.8 162.5L231.3 130.9L230.9 131.2ZM265.8 146.6L266.2 146.4L259.5 134.8L259.1 135.1ZM266.1 146.4L266.5 146.2L259.8 134.7L259.4 134.9ZM266.4 146.3L266.8 146L260 134.5L259.6 134.8ZM266.6 146.1L267 145.9L260.3 134.4L259.9 134.6ZM266.9 146L267.3 145.7L260.5 134.2L260.2 134.4ZM267.2 145.8L267.6 145.6L260.8 134.1L260.4 134.3ZM267.4 145.7L267.8 145.4L261.1 133.9L260.7 134.1ZM267.7 145.5L268.1 145.3L261.3 133.7L260.9 134ZM268 145.3L267.8 145.4L261.1 133.9L261.2 133.8ZM269.6 151.6L269.9 151.4L265 143L264.7 143.1ZM269.8 151.4L270.2 151.2L265.2 142.8L264.8 143ZM270 151.3L270.4 151.1L265.5 142.6L265.1 142.9ZM270.3 151.1L270.7 150.9L265.8 142.5L265.4 142.7ZM270.6 151L271 150.8L266 142.3L265.6 142.6ZM270.8 150.8L271.2 150.6L266.3 142.2L265.9 142.4ZM271.1 150.7L271.5 150.4L266.6 142L266.2 142.3ZM287.4 150.7L287.8 150.4L271.1 121.9L270.7 122.2ZM287.7 150.5L288.1 150.3L271.4 121.8L271 122ZM287.9 150.3L288.3 150.1L271.6 121.6L271.2 121.8ZM288.2 150.2L288.6 150L271.9 121.5L271.5 121.7ZM249.6 253.7L249.9 253.3L151.6 178.8L151.3 179.2ZM249.8 253.4L250.1 253L151.8 178.6L151.5 179ZM250 253.1L250.3 252.7L152 178.3L151.7 178.7ZM250.2 252.9L250.5 252.5L152.2 178L151.9 178.4ZM250.4 252.6L250.7 252.2L152.4 177.8L152.1 178.2ZM265.1 233.2L265.4 232.8L167.1 158.4L166.8 158.8ZM265.3 232.9L265.6 232.5L167.3 158.1L167 158.5ZM265.5 232.7L265.8 232.3L167.5 157.8L167.2 158.2ZM265.7 232.4L266 232L167.7 157.6L167.4 158ZM265.9 232.1L266.2 231.7L167.9 157.3L167.6 157.7ZM266.1 231.9L266.4 231.5L168.1 157L167.8 157.4ZM266.3 231.6L266.6 231.2L168.3 156.8L168 157.2ZM266.5 231.3L266.8 230.9L168.5 156.5L168.2 156.9ZM266.7 231.1L267 230.7L168.7 156.2L168.4 156.6ZM275.9 218.8L276.3 218.4L177.9 144L177.6 144.4ZM276.2 218.6L276.5 218.2L178.1 143.7L177.8 144.1ZM276.4 218.3L276.7 217.9L178.3 143.5L178 143.9ZM276.6 218L276.9 217.6L178.5 143.2L178.2 143.6ZM195.8 171.7L196.1 171.3L176 156.4L175.7 156.8ZM196 171.4L196.3 171L176.2 156.1L175.9 156.5ZM196.2 171.1L196.5 170.7L176.4 155.8L176.1 156.2ZM196.4 170.9L196.7 170.5L176.6 155.5L176.3 155.9ZM196.6 170.6L196.9 170.2L176.8 155.3L176.5 155.7ZM229.6 196.8L229.9 196.4L197.3 172.2L197 172.6ZM229.8 196.5L230.1 196.1L197.5 171.9L197.2 172.3ZM230 196.3L230.3 195.9L197.7 171.6L197.4 172ZM230.2 196L230.5 195.6L197.9 171.4L197.6 171.8ZM230.4 195.7L230.7 195.3L198.1 171.1L197.8 171.5ZM245 176.1L245.3 175.7L212.7 151.5L212.4 151.9ZM245.2 175.8L245.5 175.4L212.9 151.2L212.6 151.6ZM245.4 175.6L245.7 175.2L213.1 150.9L212.8 151.3ZM245.6 175.3L245.9 174.9L213.3 150.7L213 151.1ZM245.8 175L246.1 174.6L213.5 150.4L213.2 150.8ZM246 174.8L246.3 174.4L213.7 150.1L213.4 150.5ZM246.2 174.5L246.5 174.1L213.9 149.9L213.6 150.3ZM246.4 174.2L246.7 173.8L214.1 149.6L213.8 150ZM246.6 174L246.9 173.6L214.3 149.3L214 149.7ZM264.5 190.7L264.8 190.3L234.5 167.7L234.2 168.1ZM264.7 190.4L265 190L234.7 167.4L234.4 167.8ZM264.9 190.1L265.2 189.7L234.9 167.1L234.6 167.5ZM265.1 189.9L265.4 189.5L235.1 166.9L234.8 167.3ZM265.3 189.6L265.6 189.2L235.3 166.6L235 167ZM265.5 189.3L265.8 188.9L235.5 166.3L235.2 166.7ZM265.7 189.1L266 188.7L235.7 166.1L235.4 166.5ZM265.9 188.8L266.2 188.4L235.9 165.8L235.6 166.2ZM266.1 188.5L266.4 188.1L236.1 165.5L235.8 165.9ZM275.3 176.2L275.6 175.8L245.3 153.2L245 153.6ZM275.5 175.9L275.8 175.5L245.5 152.9L245.2 153.3ZM275.7 175.6L276 175.2L245.7 152.6L245.4 153ZM275.9 175.3L276.2 174.9L245.9 152.4L245.6 152.8ZM70.1 221.4L70.4 221.4L57.5 145.4L57.3 145.4ZM70.3 221.4L70.5 221.4L57.6 145.4L57.4 145.4ZM70.4 221.4L70.6 221.3L57.8 145.4L57.5 145.4ZM70.6 221.4L70.8 221.3L57.9 145.3L57.7 145.4ZM70.7 221.3L70.9 221.3L58 145.3L57.8 145.3ZM81 219.6L81.3 219.5L68.4 143.6L68.2 143.6ZM81.2 219.6L81.4 219.5L68.5 143.5L68.3 143.6ZM81.3 219.5L81.5 219.5L68.7 143.5L68.4 143.5ZM81.5 219.5L81.7 219.5L68.8 143.5L68.6 143.5ZM81.6 219.5L81.8 219.4L68.9 143.5L68.7 143.5ZM81.8 219.5L82 219.4L69.1 143.4L68.9 143.5ZM81.9 219.4L82.1 219.4L69.2 143.4L69 143.4ZM82 219.4L82.2 219.4L69.4 143.4L69.1 143.4ZM82.2 219.4L82.4 219.3L69.5 143.4L69.3 143.4ZM88.7 218.3L88.9 218.2L76 142.3L75.8 142.3ZM88.8 218.3L89 218.2L76.2 142.2L75.9 142.3ZM89 218.2L89.2 218.2L76.3 142.2L76.1 142.2ZM89.1 218.2L89.3 218.2L76.4 142.2L76.2 142.2ZM106 214.8L106.1 214.5L68.5 182.5L68.3 182.7ZM106.1 214.6L106.3 214.4L68.6 182.3L68.4 182.6ZM106.2 214.5L106.4 214.2L68.7 182.2L68.5 182.4ZM106.3 214.3L106.5 214.1L68.8 182L68.7 182.3ZM106.5 214.2L106.7 213.9L69 181.9L68.8 182.1ZM115.7 203.3L115.9 203L78.2 171L78.1 171.2ZM115.9 203.1L116.1 202.9L78.4 170.8L78.2 171.1ZM116 203L116.2 202.7L78.5 170.7L78.3 170.9ZM116.1 202.8L116.3 202.6L78.6 170.5L78.4 170.8ZM116.2 202.7L116.4 202.4L78.7 170.4L78.6 170.6ZM116.4 202.5L116.6 202.3L78.9 170.2L78.7 170.5ZM116.5 202.4L116.7 202.1L79 170.1L78.8 170.3ZM116.6 202.2L116.8 202L79.1 169.9L78.9 170.2ZM116.8 202.1L116.9 201.8L79.3 169.8L79.1 170ZM122.6 195.2L122.8 195L85.1 162.9L84.9 163.1ZM122.7 195.1L122.9 194.8L85.2 162.8L85 163ZM122.9 194.9L123 194.7L85.4 162.6L85.2 162.8ZM123 194.8L123.2 194.5L85.5 162.5L85.3 162.7ZM122 178.3L122 178.1L64.2 156.4L64.1 156.7ZM122 178.1L122.1 177.9L64.2 156.3L64.1 156.5ZM122.1 178L122.2 177.8L64.3 156.2L64.2 156.4ZM122.1 177.8L122.2 177.6L64.3 156L64.2 156.2ZM122.2 177.7L122.3 177.5L64.4 155.9L64.3 156.1ZM126.2 166.9L126.3 166.7L68.4 145.1L68.3 145.3ZM126.3 166.8L126.3 166.6L68.5 144.9L68.4 145.2ZM126.3 166.6L126.4 166.4L68.5 144.8L68.4 145ZM126.4 166.5L126.5 166.3L68.6 144.6L68.5 144.9ZM126.4 166.3L126.5 166.1L68.6 144.5L68.5 144.7ZM126.5 166.2L126.6 166L68.7 144.3L68.6 144.6ZM126.5 166L126.6 165.8L68.7 144.2L68.7 144.4ZM126.6 165.9L126.7 165.7L68.8 144L68.7 144.3ZM126.6 165.7L126.7 165.5L68.8 143.9L68.8 144.1ZM129.2 159L129.3 158.7L71.4 137.1L71.3 137.3ZM129.2 158.8L129.3 158.6L71.4 137L71.4 137.2ZM129.3 158.7L129.4 158.4L71.5 136.8L71.4 137ZM129.3 158.5L129.4 158.3L71.5 136.7L71.5 136.9Z" fill="#e08c70"/><path d="M249.7 162.6L250.1 162.3L231.6 130.8L231.2 131ZM249.9 162.4L250.3 162.2L231.8 130.6L231.4 130.9ZM250.2 162.3L250.6 162L232.1 130.5L231.7 130.7ZM250.5 162.1L250.9 161.9L232.3 130.3L232 130.6ZM250.7 162L251.1 161.7L232.6 130.2L232.2 130.4ZM251 161.8L251.4 161.6L232.9 130L232.5 130.2ZM262.7 148.4L263.1 148.2L256.3 136.7L255.9 136.9ZM262.9 148.3L263.3 148.1L256.6 136.5L256.2 136.8ZM263.2 148.1L263.6 147.9L256.8 136.4L256.5 136.6ZM263.5 148L263.9 147.7L257.1 136.2L256.7 136.5ZM263.7 147.8L264.1 147.6L257.4 136.1L257 136.3ZM264 147.7L264.4 147.4L257.6 135.9L257.2 136.1ZM264.3 147.5L264.7 147.3L257.9 135.8L257.5 136ZM264.5 147.4L264.9 147.1L258.2 135.6L257.8 135.8ZM264.8 147.2L265.2 147L258.4 135.5L258 135.7ZM265.1 147.1L265.5 146.8L258.7 135.3L258.3 135.5ZM265.3 146.9L265.7 146.7L259 135.1L258.6 135.4ZM265.6 146.7L266 146.5L259.2 135L258.8 135.2ZM288.5 150L288.9 149.8L272.1 121.3L271.8 121.5ZM288.7 149.9L289.1 149.6L272.4 121.1L272 121.4ZM289 149.7L289.4 149.5L272.7 121L272.3 121.2ZM289.3 149.6L289.7 149.3L272.9 120.8L272.5 121.1ZM289.5 149.4L289.9 149.2L273.2 120.7L272.8 120.9ZM250.6 252.3L250.9 251.9L152.6 177.5L152.3 177.9ZM250.8 252.1L251.1 251.7L152.8 177.2L152.5 177.6ZM251 251.8L251.3 251.4L153 177L152.7 177.4ZM251.2 251.5L251.5 251.1L153.2 176.7L152.9 177.1ZM251.4 251.3L251.7 250.9L153.4 176.4L153.1 176.8ZM251.6 251L251.9 250.6L153.6 176.2L153.3 176.6ZM262.7 236.4L263 236L164.6 161.6L164.3 162ZM262.9 236.1L263.2 235.7L164.8 161.3L164.5 161.7ZM263.1 235.9L263.4 235.5L165 161L164.7 161.4ZM263.3 235.6L263.6 235.2L165.2 160.8L164.9 161.2ZM263.5 235.3L263.8 234.9L165.5 160.5L165.1 160.9ZM263.7 235.1L264 234.7L165.7 160.2L165.3 160.6ZM263.9 234.8L264.2 234.4L165.9 160L165.6 160.4ZM264.1 234.5L264.4 234.1L166.1 159.7L165.8 160.1ZM264.3 234.3L264.6 233.9L166.3 159.4L166 159.8ZM264.5 234L264.8 233.6L166.5 159.2L166.2 159.6ZM264.7 233.7L265 233.3L166.7 158.9L166.4 159.3ZM264.9 233.5L265.2 233.1L166.9 158.6L166.6 159ZM276.8 217.8L277.1 217.4L178.7 142.9L178.4 143.3ZM277 217.5L277.3 217.1L178.9 142.7L178.6 143.1ZM277.2 217.2L277.5 216.8L179.1 142.4L178.8 142.8ZM277.4 217L277.7 216.6L179.3 142.1L179 142.5ZM277.6 216.7L277.9 216.3L179.5 141.9L179.2 142.3ZM196.8 170.3L197.1 169.9L177 155L176.7 155.4ZM197 170.1L197.3 169.6L177.2 154.7L176.9 155.1ZM197.2 169.8L197.5 169.4L177.4 154.5L177.1 154.9ZM197.4 169.5L197.7 169.1L177.6 154.2L177.3 154.6ZM197.6 169.2L197.9 168.8L177.8 153.9L177.5 154.3ZM197.8 169L198.1 168.6L178 153.7L177.7 154.1ZM208.8 154.2L209.1 153.8L189.1 138.9L188.8 139.3ZM209 153.9L209.3 153.5L189.3 138.6L189 139ZM209.2 153.7L209.1 153.8L189 138.9L189.2 138.7ZM230.6 195.5L230.9 195.1L198.3 170.8L198 171.2ZM230.8 195.2L231.1 194.8L198.5 170.6L198.2 171ZM231 194.9L231.3 194.5L198.7 170.3L198.4 170.7ZM231.2 194.7L231.5 194.3L198.9 170L198.6 170.4ZM231.4 194.4L231.7 194L199.1 169.8L198.8 170.2ZM231.6 194.1L231.9 193.7L199.3 169.5L199 169.9ZM242.6 179.3L242.9 178.9L210.3 154.7L210 155.1ZM242.8 179.1L243.1 178.7L210.5 154.4L210.2 154.8ZM243 178.8L243.3 178.4L210.7 154.2L210.4 154.6ZM243.2 178.5L243.5 178.1L210.9 153.9L210.6 154.3ZM243.4 178.3L243.7 177.9L211.1 153.6L210.8 154ZM243.6 178L243.9 177.6L211.3 153.4L211 153.8ZM243.8 177.7L244.1 177.3L211.5 153.1L211.2 153.5ZM244 177.5L244.3 177L211.7 152.8L211.4 153.2ZM244.2 177.2L244.5 176.8L211.9 152.5L211.6 153ZM244.4 176.9L244.7 176.5L212.1 152.3L211.8 152.7ZM244.6 176.6L244.9 176.2L212.3 152L212 152.4ZM244.8 176.4L245.1 176L212.5 151.7L212.2 152.1ZM262.1 193.9L262.4 193.5L232.1 170.9L231.8 171.3ZM262.3 193.6L262.6 193.2L232.3 170.6L232 171ZM262.5 193.4L262.8 193L232.5 170.4L232.2 170.8ZM262.7 193.1L263 192.7L232.7 170.1L232.4 170.5ZM262.9 192.8L263.2 192.4L232.9 169.8L232.6 170.2ZM263.1 192.6L263.4 192.1L233.1 169.6L232.8 170ZM263.3 192.3L263.6 191.9L233.3 169.3L233 169.7ZM263.5 192L263.8 191.6L233.5 169L233.2 169.4ZM263.7 191.7L264 191.3L233.7 168.8L233.4 169.2ZM263.9 191.5L264.2 191.1L233.9 168.5L233.6 168.9ZM264.1 191.2L264.4 190.8L234.1 168.2L233.8 168.6ZM264.3 190.9L264.6 190.5L234.3 167.9L234 168.3ZM276.1 175.1L276.4 174.7L246.1 152.1L245.8 152.5ZM276.3 174.8L276.6 174.4L246.3 151.8L246 152.2ZM276.5 174.5L276.8 174.1L246.5 151.5L246.2 152ZM276.7 174.3L277 173.9L246.7 151.3L246.4 151.7ZM276.9 174L277.2 173.6L246.9 151L246.6 151.4ZM70.9 221.3L71.1 221.3L58.2 145.3L58 145.3ZM71 221.3L71.2 221.2L58.3 145.3L58.1 145.3ZM71.1 221.3L71.3 221.2L58.5 145.2L58.2 145.3ZM71.3 221.2L71.5 221.2L58.6 145.2L58.4 145.2ZM71.4 221.2L71.6 221.2L58.7 145.2L58.5 145.2ZM71.6 221.2L71.8 221.2L58.9 145.2L58.7 145.2ZM79.3 219.9L79.6 219.8L66.7 143.8L66.5 143.9ZM79.5 219.8L79.7 219.8L66.8 143.8L66.6 143.9ZM79.6 219.8L79.8 219.8L67 143.8L66.7 143.8ZM79.8 219.8L80 219.8L67.1 143.8L66.9 143.8ZM79.9 219.8L80.1 219.7L67.2 143.7L67 143.8ZM80.1 219.7L80.3 219.7L67.4 143.7L67.2 143.8ZM80.2 219.7L80.4 219.7L67.5 143.7L67.3 143.7ZM80.3 219.7L80.5 219.7L67.7 143.7L67.4 143.7ZM80.5 219.7L80.7 219.6L67.8 143.6L67.6 143.7ZM80.6 219.6L80.8 219.6L67.9 143.6L67.7 143.7ZM80.8 219.6L81 219.6L68.1 143.6L67.9 143.6ZM80.9 219.6L81.1 219.6L68.2 143.6L68 143.6ZM89.3 218.2L89.5 218.1L76.6 142.2L76.4 142.2ZM89.4 218.2L89.6 218.1L76.7 142.1L76.5 142.2ZM89.5 218.1L89.8 218.1L76.9 142.1L76.7 142.1ZM89.7 218.1L89.9 218.1L77 142.1L76.8 142.1ZM89.8 218.1L90 218.1L77.1 142.1L76.9 142.1ZM106.6 214L106.8 213.8L69.1 181.7L68.9 182ZM106.7 213.9L106.9 213.6L69.2 181.6L69 181.8ZM106.8 213.7L107 213.5L69.3 181.4L69.2 181.7ZM107 213.6L107.2 213.3L69.5 181.3L69.3 181.5ZM107.1 213.4L107.3 213.2L69.6 181.1L69.4 181.4ZM107.2 213.3L107.4 213.1L69.7 181L69.5 181.2ZM114.2 205.1L114.4 204.8L76.7 172.8L76.5 173ZM114.3 204.9L114.5 204.7L76.8 172.6L76.7 172.9ZM114.5 204.8L114.7 204.5L77 172.5L76.8 172.7ZM114.6 204.6L114.8 204.4L77.1 172.3L76.9 172.6ZM114.7 204.5L114.9 204.2L77.2 172.2L77 172.4ZM114.8 204.3L115 204.1L77.4 172L77.2 172.3ZM115 204.2L115.2 203.9L77.5 171.9L77.3 172.1ZM115.1 204L115.3 203.8L77.6 171.7L77.4 172ZM115.2 203.9L115.4 203.6L77.7 171.6L77.5 171.8ZM115.4 203.7L115.5 203.5L77.9 171.4L77.7 171.7ZM115.5 203.6L115.7 203.3L78 171.3L77.8 171.5ZM115.6 203.4L115.8 203.2L78.1 171.1L77.9 171.4ZM123.1 194.6L123.3 194.4L85.6 162.3L85.4 162.6ZM123.2 194.5L123.4 194.2L85.7 162.2L85.5 162.4ZM123.4 194.3L123.6 194.1L85.9 162L85.7 162.3ZM123.5 194.2L123.7 193.9L86 161.9L85.8 162.1ZM123.6 194L123.8 193.8L86.1 161.7L85.9 162ZM122.2 177.6L122.3 177.3L64.4 155.7L64.4 155.9ZM122.3 177.4L122.4 177.2L64.5 155.6L64.4 155.8ZM122.3 177.3L122.4 177L64.5 155.4L64.5 155.6ZM122.4 177.1L122.5 176.9L64.6 155.3L64.5 155.5ZM122.5 177L122.5 176.7L64.7 155.1L64.6 155.3ZM122.5 176.8L122.6 176.6L64.7 155L64.6 155.2ZM125.5 168.7L125.6 168.5L67.7 146.9L67.7 147.1ZM125.6 168.6L125.7 168.3L67.8 146.7L67.7 146.9ZM125.7 168.4L125.7 168.2L67.9 146.6L67.8 146.8ZM125.7 168.3L125.8 168L67.9 146.4L67.8 146.6ZM125.8 168.1L125.8 167.9L68 146.3L67.9 146.5ZM125.8 168L125.9 167.7L68 146.1L67.9 146.3ZM125.9 167.8L126 167.6L68.1 146L68 146.2ZM125.9 167.7L126 167.4L68.1 145.8L68 146ZM126 167.5L126.1 167.3L68.2 145.7L68.1 145.9ZM126 167.4L126.1 167.1L68.2 145.5L68.2 145.7ZM126.1 167.2L126.2 167L68.3 145.4L68.2 145.6ZM126.2 167.1L126.2 166.9L68.3 145.2L68.3 145.5ZM129.4 158.4L129.5 158.1L71.6 136.5L71.5 136.7ZM129.5 158.2L129.5 158L71.7 136.4L71.6 136.6ZM129.5 158.1L129.6 157.9L71.7 136.2L71.6 136.4ZM129.6 157.9L129.7 157.7L71.8 136.1L71.7 136.3ZM129.6 157.8L129.7 157.6L71.8 135.9L71.7 136.2Z" fill="#e0a870"/><path d="M251.2 161.6L251.6 161.4L233.1 129.9L232.7 130.1ZM251.5 161.5L251.9 161.3L233.4 129.7L233 129.9ZM251.8 161.3L252.2 161.1L233.7 129.5L233.3 129.8ZM252 161.2L252.4 160.9L233.9 129.4L233.5 129.6ZM260.8 149.5L261.2 149.3L254.5 137.8L254.1 138ZM261.1 149.4L261.5 149.1L254.7 137.6L254.3 137.9ZM261.4 149.2L261.8 149L255 137.5L254.6 137.7ZM261.6 149.1L262 148.8L255.3 137.3L254.9 137.5ZM261.9 148.9L262.3 148.7L255.5 137.2L255.1 137.4ZM262.2 148.8L262.5 148.5L255.8 137L255.4 137.2ZM262.4 148.6L262.8 148.4L256.1 136.8L255.7 137.1ZM289.8 149.3L290.2 149L273.5 120.5L273.1 120.8ZM290 149.1L290.4 148.9L273.7 120.4L273.3 120.6ZM290.3 149L290.7 148.7L274 120.2L273.6 120.4ZM251.8 250.7L252.1 250.3L153.8 175.9L153.5 176.3ZM252 250.5L252.3 250.1L154 175.6L153.7 176ZM252.2 250.2L252.5 249.8L154.2 175.4L153.9 175.8ZM252.4 249.9L252.7 249.6L154.4 175.1L154.1 175.5ZM261.3 238.3L261.6 237.9L163.2 163.4L162.9 163.8ZM261.5 238L261.8 237.6L163.4 163.1L163.1 163.5ZM261.7 237.7L262 237.3L163.6 162.9L163.3 163.3ZM261.9 237.5L262.2 237.1L163.8 162.6L163.5 163ZM262.1 237.2L262.4 236.8L164 162.3L163.7 162.7ZM262.3 236.9L262.6 236.5L164.2 162.1L163.9 162.5ZM262.5 236.7L262.8 236.3L164.4 161.8L164.1 162.2ZM277.8 216.4L278.1 216L179.7 141.6L179.4 142ZM278 216.2L278.3 215.8L179.9 141.3L179.6 141.7ZM278.2 215.9L278.5 215.5L180.1 141.1L179.8 141.5ZM198 168.7L198.3 168.3L178.2 153.4L177.9 153.8ZM198.2 168.4L198.5 168L178.4 153.1L178.1 153.5ZM198.4 168.2L198.7 167.8L178.6 152.9L178.3 153.3ZM198.6 167.9L198.9 167.5L178.8 152.6L178.5 153ZM207.4 156.1L207.7 155.7L187.7 140.8L187.4 141.2ZM207.6 155.8L207.9 155.4L187.9 140.5L187.6 140.9ZM207.8 155.5L208.1 155.1L188.1 140.2L187.8 140.6ZM208 155.3L208.3 154.9L188.3 140L188 140.4ZM208.2 155L208.5 154.6L188.5 139.7L188.2 140.1ZM208.4 154.7L208.7 154.3L188.7 139.4L188.4 139.8ZM208.6 154.5L208.9 154.1L188.9 139.1L188.6 139.6ZM231.8 193.8L232.1 193.4L199.5 169.2L199.2 169.6ZM232 193.6L232.3 193.2L199.7 168.9L199.4 169.4ZM232.2 193.3L232.5 192.9L199.9 168.7L199.6 169.1ZM232.4 193L232.7 192.6L200.1 168.4L199.8 168.8ZM241.2 181.2L241.5 180.8L208.9 156.6L208.6 157ZM241.4 180.9L241.7 180.5L209.1 156.3L208.8 156.7ZM241.6 180.7L241.9 180.3L209.3 156L209 156.4ZM241.8 180.4L242.1 180L209.5 155.8L209.2 156.2ZM242 180.1L242.3 179.7L209.7 155.5L209.4 155.9ZM242.2 179.9L242.5 179.5L209.9 155.2L209.6 155.6ZM242.4 179.6L242.7 179.2L210.1 155L209.8 155.4ZM260.7 195.8L261 195.4L230.7 172.8L230.4 173.2ZM260.9 195.5L261.2 195.1L230.9 172.5L230.6 172.9ZM261.1 195.2L261.4 194.8L231.1 172.2L230.8 172.6ZM261.3 195L261.6 194.6L231.3 172L231 172.4ZM261.5 194.7L261.8 194.3L231.5 171.7L231.2 172.1ZM261.7 194.4L262 194L231.7 171.4L231.4 171.8ZM261.9 194.2L262.2 193.8L231.9 171.2L231.6 171.6ZM277.1 173.7L277.4 173.3L247.1 150.7L246.8 151.1ZM277.3 173.5L277.6 173.1L247.3 150.5L247 150.9ZM277.5 173.2L277.8 172.8L247.5 150.2L247.2 150.6ZM71.7 221.2L71.9 221.1L59 145.1L58.8 145.2ZM71.8 221.1L72.1 221.1L59.2 145.1L59 145.1ZM72 221.1L72.2 221.1L59.3 145.1L59.1 145.1ZM72.1 221.1L72.3 221.1L59.4 145.1L59.2 145.1ZM78.4 220L78.6 220L65.7 144L65.5 144ZM78.5 220L78.7 220L65.8 144L65.6 144ZM78.6 220L78.9 219.9L66 144L65.7 144ZM78.8 220L79 219.9L66.1 143.9L65.9 144ZM78.9 219.9L79.1 219.9L66.2 143.9L66 143.9ZM79.1 219.9L79.3 219.9L66.4 143.9L66.2 143.9ZM79.2 219.9L79.4 219.9L66.5 143.9L66.3 143.9ZM90 218.1L90.2 218L77.3 142L77.1 142.1ZM90.1 218L90.3 218L77.4 142L77.2 142.1ZM90.2 218L90.5 218L77.6 142L77.4 142ZM107.4 213.1L107.5 212.9L69.9 180.8L69.7 181.1ZM107.5 213L107.7 212.8L70 180.7L69.8 180.9ZM107.6 212.8L107.8 212.6L70.1 180.5L69.9 180.8ZM107.7 212.7L107.9 212.5L70.2 180.4L70 180.6ZM113.3 206.1L113.5 205.9L75.8 173.8L75.6 174.1ZM113.5 206L113.6 205.7L76 173.7L75.8 173.9ZM113.6 205.8L113.8 205.6L76.1 173.5L75.9 173.8ZM113.7 205.7L113.9 205.4L76.2 173.4L76 173.6ZM113.8 205.5L114 205.3L76.3 173.2L76.1 173.5ZM114 205.4L114.1 205.1L76.5 173.1L76.3 173.3ZM114.1 205.2L114.3 205L76.6 172.9L76.4 173.2ZM123.7 193.9L123.9 193.6L86.2 161.6L86.1 161.8ZM123.9 193.7L124.1 193.5L86.4 161.4L86.2 161.7ZM124 193.6L124.2 193.3L86.5 161.3L86.3 161.5ZM122.6 176.7L122.7 176.4L64.8 154.8L64.7 155ZM122.6 176.5L122.7 176.3L64.8 154.7L64.7 154.9ZM122.7 176.4L122.8 176.2L64.9 154.5L64.8 154.7ZM122.7 176.2L122.8 176L64.9 154.4L64.8 154.6ZM125.2 169.7L125.2 169.5L67.4 147.9L67.3 148.1ZM125.2 169.6L125.3 169.4L67.4 147.7L67.3 148ZM125.3 169.4L125.4 169.2L67.5 147.6L67.4 147.8ZM125.3 169.3L125.4 169.1L67.5 147.4L67.4 147.7ZM125.4 169.1L125.5 168.9L67.6 147.3L67.5 147.5ZM125.4 169L125.5 168.8L67.6 147.1L67.6 147.4ZM125.5 168.8L125.6 168.6L67.7 147L67.6 147.2ZM129.7 157.6L129.8 157.4L71.9 135.8L71.8 136ZM129.7 157.5L129.8 157.3L71.9 135.6L71.9 135.9ZM129.8 157.3L129.9 157.1L72 135.5L71.9 135.7Z" fill="#fca870"/><path d="M252.3 161L252.7 160.8L234.2 129.2L233.8 129.5ZM252.6 160.9L253 160.6L234.5 129.1L234.1 129.3ZM252.8 160.7L253.2 160.5L234.7 128.9L234.3 129.2ZM253.1 160.6L253.5 160.3L235 128.8L234.6 129ZM253.4 160.4L253.8 160.2L235.3 128.6L234.9 128.9ZM253.6 160.3L254 160L235.5 128.5L235.1 128.7ZM253.9 160.1L254.3 159.9L235.8 128.3L235.4 128.5ZM254.2 159.9L254.6 159.7L236 128.2L235.7 128.4ZM254.4 159.8L254.8 159.6L236.3 128L235.9 128.2ZM254.7 159.6L255.1 159.4L236.6 127.8L236.2 128.1ZM254.9 159.5L255.3 159.2L236.8 127.7L236.4 127.9ZM255.2 159.3L255.6 159.1L237.1 127.5L236.7 127.8ZM258.1 157.6L258.5 157.4L240 125.8L239.6 126.1ZM258.4 157.5L258.8 157.2L240.3 125.7L239.9 125.9ZM258.6 157.3L259 157.1L240.5 125.5L240.1 125.8ZM258.9 157.2L259.3 156.9L240.8 125.4L240.4 125.6ZM259.2 157L259.6 156.8L241.1 125.2L240.7 125.4ZM259.4 156.8L259.8 156.6L241.3 125.1L240.9 125.3ZM259.7 156.7L260.1 156.5L241.6 124.9L241.2 125.1ZM260 156.5L260.4 156.3L241.9 124.7L241.5 125ZM260.2 156.4L260.6 156.1L242.1 124.6L241.7 124.8ZM260.5 156.2L260.9 156L242.4 124.4L242 124.7ZM260.8 156.1L260.8 156.1L242.3 124.5L242.3 124.5ZM258.6 150.8L258.8 150.7L252.1 139.2L251.8 139.3ZM258.7 150.8L259.1 150.5L252.4 139L252 139.2ZM259 150.6L259.4 150.4L252.6 138.9L252.2 139.1ZM259.2 150.5L259.6 150.2L252.9 138.7L252.5 138.9ZM259.5 150.3L259.9 150.1L253.1 138.5L252.8 138.8ZM259.8 150.1L260.2 149.9L253.4 138.4L253 138.6ZM260 150L260.4 149.8L253.7 138.2L253.3 138.5ZM260.3 149.8L260.7 149.6L253.9 138.1L253.5 138.3ZM260.6 149.7L261 149.5L254.2 137.9L253.8 138.2ZM290.6 148.8L291 148.6L274.3 120.1L273.9 120.3ZM290.8 148.6L291.2 148.4L274.5 119.9L274.1 120.1ZM291.1 148.5L291.5 148.3L274.8 119.7L274.4 120ZM291.4 148.3L291.8 148.1L275.1 119.6L274.7 119.8ZM291.6 148.2L291.6 148.2L274.8 119.7L274.9 119.7ZM252.6 249.7L252.9 249.3L154.6 174.8L154.3 175.2ZM252.8 249.4L253.1 249L154.8 174.6L154.5 175ZM253 249.2L253.3 248.8L155 174.3L154.7 174.7ZM253.2 248.9L253.5 248.5L155.2 174L154.9 174.4ZM253.4 248.6L253.7 248.2L155.4 173.8L155.1 174.2ZM253.6 248.4L253.9 248L155.6 173.5L155.3 173.9ZM253.8 248.1L254.1 247.7L155.8 173.3L155.5 173.7ZM254 247.8L254.3 247.4L156 173L155.7 173.4ZM254.2 247.6L254.5 247.2L156.2 172.7L155.9 173.1ZM254.4 247.3L254.7 246.9L156.4 172.5L156.1 172.9ZM254.6 247L254.9 246.6L156.6 172.2L156.3 172.6ZM254.8 246.8L255.1 246.4L156.8 171.9L156.5 172.3ZM257 243.8L257.3 243.4L159 169L158.7 169.4ZM257.2 243.6L257.5 243.2L159.2 168.7L158.9 169.1ZM257.4 243.3L257.7 242.9L159.4 168.5L159.1 168.9ZM257.6 243L257.9 242.6L159.6 168.2L159.3 168.6ZM257.8 242.8L258.1 242.4L159.8 167.9L159.5 168.3ZM258 242.5L258.3 242.1L160 167.7L159.7 168.1ZM258.2 242.2L258.5 241.8L160.2 167.4L159.9 167.8ZM258.4 242L258.7 241.6L160.4 167.1L160.1 167.5ZM258.6 241.7L258.9 241.3L160.6 166.9L160.3 167.3ZM258.8 241.4L259.1 241L160.8 166.6L160.5 167ZM259 241.2L259.3 240.8L161 166.3L160.7 166.7ZM259.2 240.9L259.5 240.5L161.2 166.1L160.9 166.5ZM259.4 240.6L259.7 240.2L161.4 165.8L161.1 166.2ZM259.6 240.4L259.9 240L161.6 165.5L161.3 165.9ZM259.8 240.1L260.1 239.7L161.8 165.3L161.5 165.7ZM260 239.8L260.3 239.4L162 165L161.7 165.4ZM260.2 239.6L260.5 239.2L162.2 164.7L161.9 165.1ZM260.4 239.3L260.8 238.9L162.4 164.5L162.1 164.9ZM260.6 239L261 238.6L162.6 164.2L162.3 164.6ZM260.9 238.8L261.2 238.4L162.8 163.9L162.5 164.3ZM261.1 238.5L261.4 238.1L163 163.7L162.7 164.1ZM278.4 215.6L278.7 215.3L180.3 140.8L180 141.2ZM278.6 215.4L278.9 215L180.5 140.5L180.2 140.9ZM278.8 215.1L279.1 214.7L180.7 140.3L180.4 140.7ZM279 214.9L279.3 214.5L181 140L180.6 140.4ZM279.2 214.6L279.5 214.2L181.2 139.7L180.9 140.1ZM279.4 214.3L279.7 213.9L181.4 139.5L181.1 139.9ZM279.6 214.1L279.9 213.7L181.6 139.2L181.3 139.6ZM279.8 213.8L280.1 213.4L181.8 139L181.5 139.3ZM280 213.5L280.3 213.1L182 138.7L181.7 139.1ZM280.2 213.3L280.5 212.9L182.2 138.4L181.9 138.8ZM198.8 167.6L199.1 167.2L179 152.3L178.7 152.7ZM199 167.4L199.3 167L179.2 152.1L178.9 152.5ZM199.2 167.1L199.5 166.7L179.4 151.8L179.1 152.2ZM199.4 166.8L199.7 166.4L179.6 151.5L179.3 151.9ZM199.6 166.6L199.9 166.2L179.8 151.2L179.5 151.6ZM199.8 166.3L200.1 165.9L180 151L179.7 151.4ZM200 166L200.3 165.6L180.2 150.7L179.9 151.1ZM200.2 165.7L200.5 165.3L180.4 150.4L180.1 150.8ZM200.4 165.5L200.7 165.1L180.6 150.2L180.3 150.6ZM200.6 165.2L200.9 164.8L180.8 149.9L180.5 150.3ZM200.8 164.9L201.1 164.5L181 149.6L180.7 150ZM201 164.7L201.3 164.3L181.2 149.4L180.9 149.8ZM203.2 161.7L203.5 161.3L183.5 146.4L183.1 146.8ZM203.4 161.4L203.7 161L183.6 146.1L183.4 146.5ZM203.6 161.2L203.9 160.8L183.9 145.9L183.6 146.3ZM203.8 160.9L204.1 160.5L184.1 145.6L183.8 146ZM204 160.6L204.3 160.2L184.3 145.3L184 145.7ZM204.2 160.4L204.5 160L184.5 145.1L184.2 145.5ZM204.4 160.1L204.7 159.7L184.7 144.8L184.4 145.2ZM204.6 159.8L204.9 159.4L184.9 144.5L184.6 144.9ZM204.8 159.6L205.1 159.2L185.1 144.3L184.8 144.7ZM205 159.3L205.3 158.9L185.3 144L185 144.4ZM205.2 159L205.5 158.6L185.5 143.7L185.2 144.1ZM205.4 158.8L205.7 158.4L185.7 143.5L185.4 143.9ZM205.6 158.5L205.9 158.1L185.9 143.2L185.6 143.6ZM205.8 158.2L206.1 157.8L186.1 142.9L185.8 143.3ZM206 158L206.3 157.6L186.3 142.6L186 143ZM206.2 157.7L206.5 157.3L186.5 142.4L186.2 142.8ZM206.4 157.4L206.7 157L186.7 142.1L186.4 142.5ZM206.6 157.1L206.9 156.7L186.9 141.8L186.6 142.2ZM206.8 156.9L207.1 156.5L187.1 141.6L186.8 142ZM207 156.6L207.3 156.2L187.3 141.3L187 141.7ZM207.2 156.3L207.5 155.9L187.5 141L187.2 141.4ZM232.6 192.8L232.9 192.4L200.3 168.1L200 168.5ZM232.8 192.5L233.1 192.1L200.5 167.9L200.2 168.3ZM233 192.2L233.3 191.8L200.7 167.6L200.4 168ZM233.2 192L233.5 191.6L200.9 167.3L200.6 167.7ZM233.4 191.7L233.7 191.3L201.1 167.1L200.8 167.5ZM233.6 191.4L233.9 191L201.3 166.8L201 167.2ZM233.8 191.2L234.1 190.8L201.5 166.5L201.2 166.9ZM234 190.9L234.3 190.5L201.7 166.3L201.4 166.7ZM234.2 190.6L234.5 190.2L201.9 166L201.6 166.4ZM234.4 190.4L234.7 190L202.1 165.7L201.8 166.1ZM234.6 190.1L234.9 189.7L202.3 165.5L202 165.9ZM234.8 189.8L235.1 189.4L202.5 165.2L202.2 165.6ZM237 186.9L237.3 186.5L204.7 162.2L204.4 162.6ZM237.2 186.6L237.5 186.2L204.9 162L204.6 162.4ZM237.4 186.3L237.7 185.9L205.1 161.7L204.8 162.1ZM237.6 186.1L237.9 185.6L205.3 161.4L205 161.8ZM237.8 185.8L238.1 185.4L205.5 161.2L205.2 161.6ZM238 185.5L238.3 185.1L205.7 160.9L205.4 161.3ZM238.2 185.2L238.5 184.8L205.9 160.6L205.6 161ZM238.4 185L238.7 184.6L206.1 160.3L205.8 160.7ZM238.6 184.7L238.9 184.3L206.3 160.1L206 160.5ZM238.8 184.4L239.1 184L206.5 159.8L206.2 160.2ZM239 184.2L239.3 183.8L206.7 159.5L206.4 159.9ZM239.2 183.9L239.5 183.5L206.9 159.3L206.6 159.7ZM239.4 183.6L239.7 183.2L207.1 159L206.8 159.4ZM239.6 183.4L239.9 183L207.3 158.7L207 159.1ZM239.8 183.1L240.1 182.7L207.5 158.5L207.2 158.9ZM240 182.8L240.3 182.4L207.7 158.2L207.4 158.6ZM240.2 182.6L240.5 182.2L207.9 157.9L207.6 158.3ZM240.4 182.3L240.7 181.9L208.1 157.7L207.8 158.1ZM240.6 182L240.9 181.6L208.3 157.4L208 157.8ZM240.8 181.8L241.1 181.3L208.5 157.1L208.2 157.5ZM241 181.5L241.3 181.1L208.7 156.9L208.4 157.3ZM260.6 195.9L260.8 195.6L230.5 173.1L230.3 173.3ZM277.7 172.9L278 172.5L247.7 149.9L247.4 150.3ZM277.9 172.7L278.2 172.3L247.9 149.7L247.6 150.1ZM278.1 172.4L278.4 172L248.1 149.4L247.8 149.8ZM278.3 172.1L278.6 171.7L248.3 149.1L248 149.5ZM278.5 171.9L278.8 171.5L248.5 148.9L248.2 149.3ZM278.7 171.6L279 171.2L248.7 148.6L248.4 149ZM278.9 171.3L279.2 170.9L248.9 148.3L248.6 148.7ZM279.1 171L279.4 170.6L249.1 148.1L248.8 148.5ZM279.3 170.8L279.6 170.4L249.3 147.8L249 148.2ZM279.5 170.5L279.8 170.1L249.5 147.5L249.2 147.9ZM72.3 221.1L72.5 221L59.6 145L59.4 145.1ZM72.4 221L72.6 221L59.7 145L59.5 145.1ZM72.6 221L72.8 221L59.9 145L59.7 145ZM72.7 221L72.9 221L60 145L59.8 145ZM72.8 221L73 220.9L60.2 144.9L59.9 145ZM73 220.9L73.2 220.9L60.3 144.9L60.1 145ZM73.1 220.9L73.3 220.9L60.4 144.9L60.2 144.9ZM73.3 220.9L73.5 220.9L60.6 144.9L60.4 144.9ZM73.4 220.9L73.6 220.8L60.7 144.8L60.5 144.9ZM73.5 220.9L73.8 220.8L60.9 144.8L60.7 144.9ZM73.7 220.8L73.9 220.8L61 144.8L60.8 144.8ZM73.8 220.8L74 220.8L61.1 144.8L60.9 144.8ZM75.4 220.5L75.6 220.5L62.7 144.5L62.5 144.5ZM75.5 220.5L75.7 220.5L62.8 144.5L62.6 144.5ZM75.7 220.5L75.9 220.5L63 144.5L62.8 144.5ZM75.8 220.5L76 220.4L63.1 144.4L62.9 144.5ZM75.9 220.4L76.2 220.4L63.3 144.4L63.1 144.5ZM76.1 220.4L76.3 220.4L63.4 144.4L63.2 144.4ZM76.2 220.4L76.4 220.4L63.6 144.4L63.3 144.4ZM76.4 220.4L76.6 220.3L63.7 144.3L63.5 144.4ZM76.5 220.3L76.7 220.3L63.8 144.3L63.6 144.4ZM76.7 220.3L76.9 220.3L64 144.3L63.8 144.3ZM76.8 220.3L77 220.3L64.1 144.3L63.9 144.3ZM76.9 220.3L77.2 220.2L64.3 144.2L64.1 144.3ZM77.1 220.3L77.3 220.2L64.4 144.2L64.2 144.3ZM77.2 220.2L77.4 220.2L64.5 144.2L64.3 144.2ZM77.4 220.2L77.6 220.2L64.7 144.2L64.5 144.2ZM77.5 220.2L77.7 220.1L64.8 144.2L64.6 144.2ZM77.6 220.2L77.9 220.1L65 144.1L64.8 144.2ZM77.8 220.1L78 220.1L65.1 144.1L64.9 144.1ZM77.9 220.1L78.1 220.1L65.3 144.1L65 144.1ZM78.1 220.1L78.3 220L65.4 144.1L65.2 144.1ZM78.2 220.1L78.4 220L65.5 144L65.3 144.1ZM90.4 218L90.6 218L77.7 142L77.5 142ZM90.5 218L90.7 217.9L77.9 141.9L77.6 142ZM90.7 217.9L90.9 217.9L78 141.9L77.8 142ZM90.8 217.9L91 217.9L78.1 141.9L77.9 141.9ZM91 217.9L91.2 217.9L78.3 141.9L78.1 141.9ZM91.1 217.9L91.3 217.8L78.4 141.8L78.2 141.9ZM91.2 217.8L91.5 217.8L78.6 141.8L78.3 141.9ZM91.4 217.8L91.6 217.8L78.7 141.8L78.5 141.8ZM91.5 217.8L91.7 217.8L78.8 141.8L78.6 141.8ZM91.7 217.8L91.9 217.7L79 141.8L78.8 141.8ZM107.9 212.5L108.1 212.3L70.4 180.2L70.2 180.5ZM108 212.4L108.2 212.2L70.5 180.1L70.3 180.3ZM108.1 212.2L108.3 212L70.6 179.9L70.4 180.2ZM108.2 212.1L108.4 211.9L70.7 179.8L70.6 180ZM108.4 211.9L108.6 211.7L70.9 179.7L70.7 179.9ZM108.5 211.8L108.7 211.6L71 179.5L70.8 179.7ZM108.6 211.6L108.8 211.4L71.1 179.4L70.9 179.6ZM108.8 211.5L108.9 211.3L71.3 179.2L71.1 179.4ZM108.9 211.3L109.1 211.1L71.4 179.1L71.2 179.3ZM109 211.2L109.2 211L71.5 178.9L71.3 179.1ZM109.1 211L109.3 210.8L71.6 178.8L71.4 179ZM109.3 210.9L109.4 210.7L71.8 178.6L71.6 178.8ZM110.7 209.2L110.8 209L73.2 177L73 177.2ZM110.8 209.1L111 208.9L73.3 176.8L73.1 177ZM110.9 208.9L111.1 208.7L73.4 176.7L73.2 176.9ZM111 208.8L111.2 208.6L73.5 176.5L73.4 176.7ZM111.2 208.6L111.4 208.4L73.7 176.4L73.5 176.6ZM111.3 208.5L111.5 208.3L73.8 176.2L73.6 176.4ZM111.4 208.3L111.6 208.1L73.9 176.1L73.7 176.3ZM111.5 208.2L111.7 208L74 175.9L73.9 176.1ZM111.7 208L111.9 207.8L74.2 175.8L74 176ZM111.8 207.9L112 207.7L74.3 175.6L74.1 175.8ZM111.9 207.7L112.1 207.5L74.4 175.5L74.2 175.7ZM112.1 207.6L112.2 207.4L74.6 175.3L74.4 175.5ZM112.2 207.4L112.4 207.2L74.7 175.2L74.5 175.4ZM112.3 207.3L112.5 207.1L74.8 175L74.6 175.2ZM112.4 207.2L112.6 206.9L74.9 174.9L74.7 175.1ZM112.6 207L112.8 206.8L75.1 174.7L74.9 174.9ZM112.7 206.9L112.9 206.6L75.2 174.6L75 174.8ZM112.8 206.7L113 206.5L75.3 174.4L75.1 174.6ZM112.9 206.6L113.1 206.3L75.4 174.3L75.3 174.5ZM113.1 206.4L113.3 206.2L75.6 174.1L75.4 174.3ZM113.2 206.3L113.4 206L75.7 174L75.5 174.2ZM124.1 193.4L124 193.6L86.3 161.5L86.4 161.4ZM122.8 176.1L122.9 175.9L65 154.2L64.9 154.5ZM122.8 175.9L122.9 175.7L65 154.1L65 154.3ZM122.9 175.8L123 175.6L65.1 153.9L65 154.2ZM123 175.6L123 175.4L65.2 153.8L65.1 154ZM123 175.5L123.1 175.3L65.2 153.6L65.1 153.9ZM123.1 175.3L123.1 175.1L65.3 153.5L65.2 153.7ZM123.1 175.2L123.2 175L65.3 153.3L65.2 153.6ZM123.2 175L123.3 174.8L65.4 153.2L65.3 153.4ZM123.2 174.9L123.3 174.7L65.4 153.1L65.3 153.3ZM123.3 174.7L123.4 174.5L65.5 152.9L65.4 153.1ZM123.3 174.6L123.4 174.4L65.5 152.8L65.5 153ZM123.4 174.5L123.5 174.2L65.6 152.6L65.5 152.8ZM124 172.8L124.1 172.6L66.2 151L66.1 151.2ZM124.1 172.7L124.1 172.5L66.3 150.8L66.2 151.1ZM124.1 172.5L124.2 172.3L66.3 150.7L66.2 150.9ZM124.2 172.4L124.2 172.2L66.4 150.5L66.3 150.8ZM124.2 172.2L124.3 172L66.4 150.4L66.3 150.6ZM124.3 172.1L124.4 171.9L66.5 150.2L66.4 150.5ZM124.3 171.9L124.4 171.7L66.5 150.1L66.4 150.3ZM124.4 171.8L124.5 171.6L66.6 150L66.5 150.2ZM124.4 171.6L124.5 171.4L66.6 149.8L66.6 150ZM124.5 171.5L124.6 171.3L66.7 149.7L66.6 149.9ZM124.6 171.4L124.6 171.1L66.8 149.5L66.7 149.7ZM124.6 171.2L124.7 171L66.8 149.4L66.7 149.6ZM124.7 171.1L124.7 170.8L66.9 149.2L66.8 149.4ZM124.7 170.9L124.8 170.7L66.9 149.1L66.8 149.3ZM124.8 170.8L124.9 170.5L67 148.9L66.9 149.1ZM124.8 170.6L124.9 170.4L67 148.8L66.9 149ZM124.9 170.5L125 170.2L67.1 148.6L67 148.8ZM124.9 170.3L125 170.1L67.1 148.5L67.1 148.7ZM125 170.2L125.1 170L67.2 148.3L67.1 148.6ZM125 170L125.1 169.8L67.2 148.2L67.2 148.4ZM125.1 169.9L125.2 169.7L67.3 148L67.2 148.3ZM129.8 157.2L129.9 157L72 135.3L72 135.6ZM129.9 157L129.9 157.1L72 135.5L72 135.4Z" fill="#fca88c"/><path d="M255.5 159.2L255.9 158.9L237.4 127.4L237 127.6ZM255.7 159L256.1 158.8L237.6 127.2L237.2 127.5ZM256 158.9L256.4 158.6L237.9 127.1L237.5 127.3ZM256.3 158.7L256.7 158.5L238.2 126.9L237.8 127.1ZM256.5 158.5L256.9 158.3L238.4 126.8L238 127ZM256.8 158.4L257.2 158.2L238.7 126.6L238.3 126.8ZM257.1 158.2L257.5 158L239 126.4L238.6 126.7ZM257.3 158.1L257.7 157.9L239.2 126.3L238.8 126.5ZM257.6 157.9L258 157.7L239.5 126.1L239.1 126.4ZM257.9 157.8L258.2 157.5L239.7 126L239.4 126.2ZM255 246.5L255.3 246.1L157 171.7L156.7 172.1ZM255.2 246.2L255.5 245.8L157.2 171.4L156.9 171.8ZM255.4 246L255.7 245.6L157.4 171.1L157.1 171.5ZM255.6 245.7L255.9 245.3L157.6 170.9L157.3 171.3ZM255.8 245.4L256.1 245L157.8 170.6L157.5 171ZM256 245.2L256.3 244.8L158 170.3L157.7 170.7ZM256.2 244.9L256.5 244.5L158.2 170.1L157.9 170.5ZM256.4 244.6L256.7 244.2L158.4 169.8L158.1 170.2ZM256.6 244.4L256.9 244L158.6 169.5L158.3 169.9ZM256.8 244.1L257.1 243.7L158.8 169.3L158.5 169.7ZM280.4 213L280.7 212.6L182.4 138.2L182.1 138.6ZM280.6 212.7L280.9 212.3L182.6 137.9L182.3 138.3ZM280.8 212.5L288.4 202.4L190.1 128L182.5 138ZM201.2 164.4L201.5 164L181.4 149.1L181.1 149.5ZM201.4 164.1L201.7 163.7L181.6 148.8L181.3 149.2ZM201.6 163.9L201.9 163.5L181.8 148.6L181.5 149ZM201.8 163.6L202.1 163.2L182 148.3L181.7 148.7ZM202 163.3L202.3 162.9L182.2 148L181.9 148.4ZM202.2 163.1L202.5 162.7L182.5 147.8L182.1 148.2ZM202.4 162.8L202.7 162.4L182.6 147.5L182.3 147.9ZM202.6 162.5L202.9 162.1L182.9 147.2L182.5 147.6ZM202.8 162.3L203.1 161.9L183 146.9L182.7 147.3ZM203 162L203.3 161.6L183.2 146.7L183 147.1ZM235 189.5L235.3 189.1L202.7 164.9L202.4 165.3ZM235.2 189.3L235.5 188.9L202.9 164.6L202.6 165ZM235.4 189L235.7 188.6L203.1 164.4L202.8 164.8ZM235.6 188.7L235.9 188.3L203.3 164.1L203 164.5ZM235.8 188.5L236.1 188.1L203.5 163.8L203.2 164.2ZM236 188.2L236.3 187.8L203.7 163.6L203.4 164ZM236.2 187.9L236.5 187.5L203.9 163.3L203.6 163.7ZM236.4 187.7L236.7 187.3L204.1 163L203.8 163.4ZM236.6 187.4L236.9 187L204.3 162.8L204 163.2ZM236.8 187.1L237.1 186.7L204.5 162.5L204.2 162.9ZM279.7 170.2L280 169.8L249.7 147.2L249.4 147.6ZM279.9 170L280.2 169.6L249.9 147L249.6 147.4ZM280.1 169.7L285.1 163L254.8 140.4L249.8 147.1ZM74 220.8L74.2 220.7L61.3 144.8L61.1 144.8ZM74.1 220.8L74.3 220.7L61.4 144.7L61.2 144.8ZM74.2 220.7L74.5 220.7L61.6 144.7L61.4 144.7ZM74.4 220.7L74.6 220.7L61.7 144.7L61.5 144.7ZM74.5 220.7L74.7 220.6L61.9 144.7L61.6 144.7ZM74.7 220.7L74.9 220.6L62 144.6L61.8 144.7ZM74.8 220.6L75 220.6L62.1 144.6L61.9 144.6ZM75 220.6L75.2 220.6L62.3 144.6L62.1 144.6ZM75.1 220.6L75.3 220.6L62.4 144.6L62.2 144.6ZM75.2 220.6L75.5 220.5L62.6 144.5L62.4 144.6ZM91.8 217.8L92 217.7L79.1 141.7L78.9 141.8ZM91.9 217.7L92.2 217.7L79.3 141.7L79.1 141.7ZM92.1 217.7L96.9 216.9L84 140.9L79.2 141.7ZM109.4 210.7L109.6 210.5L71.9 178.5L71.7 178.7ZM109.5 210.6L109.7 210.4L72 178.3L71.8 178.5ZM109.6 210.4L109.8 210.2L72.1 178.2L72 178.4ZM109.8 210.3L110 210.1L72.3 178L72.1 178.2ZM109.9 210.1L110.1 209.9L72.4 177.9L72.2 178.1ZM110 210L110.2 209.8L72.5 177.7L72.3 177.9ZM110.1 209.8L110.3 209.6L72.7 177.6L72.5 177.8ZM110.3 209.7L110.5 209.5L72.8 177.4L72.6 177.6ZM110.4 209.5L110.6 209.3L72.9 177.3L72.7 177.5ZM110.5 209.4L110.7 209.2L73 177.1L72.8 177.3ZM123.5 174.3L123.5 174.1L65.6 152.5L65.6 152.7ZM123.5 174.2L123.6 173.9L65.7 152.3L65.6 152.5ZM123.6 174L123.6 173.8L65.8 152.2L65.7 152.4ZM123.6 173.9L123.7 173.6L65.8 152L65.7 152.2ZM123.7 173.7L123.8 173.5L65.9 151.9L65.8 152.1ZM123.7 173.6L123.8 173.3L65.9 151.7L65.8 151.9ZM123.8 173.4L123.9 173.2L66 151.6L65.9 151.8ZM123.8 173.3L123.9 173.1L66 151.4L66 151.6ZM123.9 173.1L124 172.9L66.1 151.3L66 151.5ZM123.9 173L124 172.8L66.1 151.1L66.1 151.4Z" fill="#fcc48c"/></g></svg>